<svg width="228" height="120" viewBox="0 0 228 120" fill="none" xmlns="http://www.w3.org/2000/svg">
<g clip-path="url(#clip0_311_2293)">
<path d="M5.96801 116.209C2.95976 116.355 0.145588 112.953 2.8142 109.307C3.97868 106.683 2.76568 86.853 2.42604 81.6039C2.37752 80.8748 2.03788 80.1944 1.45563 79.6598C-1.69818 76.8408 0.67931 71.8348 3.93016 72.0292C5.62837 72.1264 6.01653 72.8068 6.30765 73.5358C8.5881 70.5711 13.4401 70.4739 13.9253 74.8967C14.4105 79.271 11.839 77.6671 11.1597 80.729C10.4804 83.791 11.4508 93.6087 11.5478 99.5869C11.6449 105.565 12.3727 104.933 12.033 107.315C13.5372 106.537 16.1087 108.092 15.3809 109.356C15.7691 109.162 16.3999 109.064 17.2732 109.307C27.2684 111.397 30.5192 102.649 28.7725 100.267C27.0743 97.8858 25.4246 97.1081 26.395 96.1847C27.3654 95.2126 29.3547 96.5735 28.7725 95.1154C28.5299 94.4836 28.5784 93.9004 28.8695 93.3657C29.5973 92.1507 31.3441 92.0049 32.3145 93.0741C35.4198 96.5249 38.7677 103.232 34.8375 109.113C26.7347 120.146 18.001 115.869 14.9928 117.813C14.6531 118.445 14.265 119.077 13.3916 119.563C12.4212 120.097 11.3052 120.194 10.2863 119.854C7.6177 118.979 8.24846 116.209 5.96801 116.403V116.209Z" fill="#373780"/>
<path d="M20.5726 97.1081C19.6992 99.0522 17.904 100.851 15.575 99.8785C12.8579 98.7606 13.5857 95.1154 13.7312 92.6367C13.2945 92.2479 12.9064 91.616 12.9064 90.401C12.9064 86.9016 17.6613 87.3876 18.2436 89.2831C18.2436 89.2831 22.6104 89.0401 25.6187 85.2977C29.4032 80.5346 26.3465 76.7436 22.756 77.5699C19.6022 78.2989 17.4187 80.4374 15.6235 79.2709C14.2164 77.181 17.2247 76.0146 16.7395 74.6051C16.2543 73.1956 14.362 72.8068 14.5561 71.0571C15.3324 70.4739 22.6589 68.627 28.5299 70.3767C33.8671 71.9805 38.0398 80.729 32.0233 88.2138C25.4731 96.5249 23.0956 94.3378 20.5726 97.1081Z" fill="#373780"/>
<path d="M218.826 75.2855C219.554 76.0145 220.33 76.7436 219.845 78.6877C219.214 81.458 213.44 81.5552 212.373 78.6877C207.521 78.3475 200.777 82.8675 206.842 88.2138C212.907 93.6087 221.834 93.3657 224.309 103.378C226.492 112.272 214.605 120.729 203.688 117.23C201.844 116.452 200.777 119.222 197.914 118.785C195.585 118.445 194.226 115.14 196.07 112.612C195.342 102.697 203.93 105.273 204.464 109.259C207.23 111.495 215.575 108.53 215.139 104.787C214.653 100.559 209.51 101.968 201.65 95.7958C193.79 89.5747 193.353 81.7983 198.157 75.8687C202.911 69.9392 212.761 71.1543 212.761 71.1543C216.885 67.5577 222.562 70.8627 218.826 75.2855Z" fill="#373780"/>
<path d="M180.592 78.2017C180.835 78.5905 181.126 78.9793 181.369 79.3682C182.679 81.1665 180.204 85.1033 175.692 81.3609C175.692 81.3609 161.912 79.514 159.68 81.4095C158.127 82.7217 155.265 84.5686 153.081 83.2078C149.636 81.1179 153.178 76.2576 153.178 76.2576C152.887 75.8202 152.693 75.1883 152.693 73.9247C152.742 70.7655 158.855 67.8493 160.165 72.5638C161.572 73.39 173.169 73.0498 174.333 72.661C178.312 69.0158 184.522 71.3487 180.592 78.2017Z" fill="#373780"/>
<path d="M162.397 90.6925C163.368 91.3244 167.637 87.0473 169.966 90.1093C171.519 92.1992 169.336 93.5601 169.627 95.164C171.422 96.7679 170.354 100.121 167.007 98.955C166.667 98.5176 163.659 97.8857 162.979 98.6634C162.3 99.441 162.3 105.322 163.61 106.78C167.152 107.655 173.799 107.46 174.576 106.829C175.304 103.767 184.231 101.337 181.417 111.106C184.716 114.411 181.126 119.028 176.759 115.772C176.759 115.772 165.211 114.508 161.427 116.403C158.661 118.688 155.992 118.445 155.362 116.403C154.925 114.994 153.858 113.827 153.227 113.487C150.413 112.855 148.909 109.842 153.809 104.496C155.216 102.114 154.149 94.3378 153.664 91.0328C153.178 87.6792 152.887 85.5893 154.488 85.9781C156.041 86.3669 157.254 85.4435 160.165 83.9854C161.766 83.1591 163.465 84.2284 162.785 86.5127C162.397 88.0194 162.349 89.6719 162.397 90.6925Z" fill="#373780"/>
<path d="M126.395 111.397C126.104 109.356 124.26 107.509 117.661 101.968C110.044 95.6015 114.314 92.4909 113.683 91.4217C113.004 90.3524 111.936 84.7145 114.944 83.6938C117.225 82.9162 118.632 89.0887 119.602 92.0535C120.573 95.0182 127.026 101.191 128.724 101.58C130.422 100.219 131.441 86.4642 130.374 82.7218C125.134 76.1604 130.568 73.1956 133.334 73.9733C134.255 74.2163 134.789 74.6537 135.371 75.1884L135.711 75.1398C135.711 75.1398 140.612 71.689 142.067 76.8408C143.135 80.486 139.981 81.7497 139.204 83.062C138.428 84.3743 139.302 91.4702 138.622 97.6428C137.943 103.864 137.264 105.371 139.738 109.453C142.213 113.536 139.35 117.181 137.749 116.355C136.73 115.869 135.954 114.994 134.886 114.605L134.789 114.848C133.722 117.91 127.948 119.028 126.347 115.431C125.473 113.536 125.958 112.369 126.395 111.397Z" fill="#373780"/>
<path d="M109.025 75.723C111.354 75.1397 112.664 73.8761 114.605 75.5772C116.351 77.1811 114.75 80.8749 112.955 83.062C112.567 83.4994 112.373 84.0826 112.324 84.6659C112.082 90.0608 111.888 103.281 111.839 107.461C111.839 108.238 112.082 108.967 112.518 109.55C113.246 110.522 114.168 112.224 113.586 114.022C111.694 119.563 108.637 116.501 104.804 116.695C103.203 117.327 101.359 116.987 100.194 115.577C98.8842 113.973 98.7386 111.349 102.281 108.384C102.669 106.391 103.785 84.5687 102.281 81.2151C96.8949 75.5772 104.998 69.9879 109.025 75.723Z" fill="#373780"/>
<path d="M73.7021 76.7922C73.2655 75.5286 73.5081 73.9247 75.1577 73.39C83.8914 72.3208 90.6842 81.7497 90.102 92.3937C89.8594 96.4763 89.6653 99.6355 88.3552 102.892C85.0559 111.203 76.8074 116.646 67.8797 116.306C60.5532 116.015 53.3722 111.932 51.5284 101.871C48.2776 84.6173 56.6716 78.7363 63.6099 73.4872C66.5697 68.2382 71.6158 70.5225 71.4217 73.4872C71.2761 75.3341 70.5483 75.6744 70.0631 76.4034C71.4217 77.3268 71.9554 78.4447 71.9069 79.5626C71.8099 81.7011 69.7235 83.6938 67.8312 83.6938C66.6667 83.6938 65.9874 83.2078 65.4537 82.7217C65.2111 82.8676 57.2053 88.1652 59.1461 99.1008C61.1354 110.134 77.5838 113.682 81.1257 98.6148C84.6677 83.548 77.6808 82.6245 74.9637 82.1385C73.5081 81.8955 73.1684 80.7776 73.2169 79.5626C73.1684 78.5419 73.5081 77.3755 73.7021 76.7922Z" fill="#373780"/>
<path d="M186.075 47.582L186.026 47.4848C186.026 47.4848 184.231 42.7703 187.531 41.4094C190.49 40.1458 191.897 43.791 193.693 44.277C195.1 44.6658 202.038 44.6172 205.968 43.6938C211.305 37.9587 208.152 18.6634 207.181 16.2819C202.329 11.2272 205.677 6.95015 208.637 7.14456C210.141 7.24177 210.092 8.16522 210.384 9.08867C216.4 4.277 223.387 10.5954 217.613 15.8444C216.157 17.4483 217.904 27.7521 217.613 32.7582C217.322 37.7642 217.613 48.4568 210.141 51.7618C201.31 55.3098 193.596 51.5674 190.636 52.5395C183.6 55.6014 183.406 49.8663 184.619 48.8457C185.153 48.3596 185.638 47.9708 186.075 47.582Z" fill="#373780"/>
<path d="M186.124 7.825C187.337 8.26243 188.21 5.68649 191.8 5.78369C195.391 5.8809 196.264 12.1506 191.8 14.1434C190.83 17.2053 189.035 27.4119 196.944 28.9186C201.407 29.5018 203.3 25.565 205.386 25.565C207.472 25.565 207.569 29.356 206.551 31.5917C206.745 33.0012 207.618 37.0352 201.601 37.3268C195.585 37.6184 185.541 37.2296 182.873 27.4119C181.174 19.9757 183.212 17.6913 182.533 14.2892C181.708 13.7545 180.738 12.9283 180.204 10.644C179.331 6.85295 184.086 4.66583 186.124 7.825Z" fill="#373780"/>
<path d="M143.523 4.90881C146.968 6.65851 161.378 5.73505 164.095 5.58925C170.015 3.0133 173.363 5.15182 170.354 11.616L170.306 11.6646C170.646 12.1506 170.937 12.6852 171.082 13.5115C171.47 16.0874 167.734 18.5662 163.853 15.2126C162.349 13.9003 160.699 13.2685 144.93 13.5601C142.649 13.8517 141.145 16.8165 138.137 15.2126C136.099 14.0947 138.137 9.57467 138.137 9.57467C133.964 7.67916 139.496 0.388761 143.523 4.90881Z" fill="#373780"/>
<path d="M152.256 52.5881C151.82 53.0741 151.14 53.5115 149.879 53.5115C146.968 53.5115 144.445 50.0121 147.113 46.3669C148.181 44.9574 148.86 24.5929 148.617 18.0802C148.569 16.9623 149.248 15.893 150.316 15.5528C151.237 15.2612 152.305 15.2126 153.227 15.9416C154.294 16.0874 158.224 14.7266 157.497 18.226C156.914 21.1907 156.817 39.0279 156.769 44.5686C156.769 45.3949 156.914 46.2697 157.497 46.9015C159.923 49.4289 159.437 55.8444 152.256 52.5881Z" fill="#373780"/>
<path d="M121.203 9.91494C121.446 10.158 121.64 10.4496 121.834 10.8384C122.902 13.5115 119.796 16.9623 115.866 12.6367C112.324 12.4909 104.464 13.1227 105.628 19.6355C106.793 26.1482 112.227 24.6416 121.058 30.3281C127.171 34.2649 129.937 48.2624 116.254 51.2758C111.16 51.7618 108.54 51.6646 106.502 51.5188C105.289 51.4216 104.027 51.6646 102.96 52.2479C101.116 53.1713 98.9327 54.192 97.4286 51.373C96.6037 49.9149 97.186 47.6792 99.1753 47.0474C97.0404 43.8396 99.7575 39.8542 103.154 41.1665C105.386 42.0413 105.337 43.791 108.637 44.034C111.208 44.2284 116.885 43.305 117.419 39.4168C117.904 35.5771 110.869 34.3621 104.513 31.4945C98.1564 28.627 95.6333 21.1422 97.8167 14.3378C100.243 6.60996 107.812 5.05468 113.44 4.66585C114.168 4.61725 114.847 4.42284 115.43 4.03402C119.263 1.70109 124.697 3.45079 121.203 9.91494Z" fill="#373780"/>
<path d="M68.8987 10.6925C68.462 10.0607 67.9768 9.33166 67.7342 8.2624C66.6183 3.69375 75.643 0.340163 76.3708 9.18585C77.0986 10.5467 82.5814 16.6221 82.9695 27.9951C83.3577 39.3195 81.7565 46.8529 81.9991 48.4082C85.6867 50.9841 83.4547 58.1287 77.3412 54.4349H76.759C76.3223 54.6293 75.6915 54.7752 74.7211 54.7752C71.5188 54.7752 70.888 50.5953 73.9448 48.1166C74.8181 46.4155 77.1956 24.8359 71.6643 17.3025V17.1567C71.0821 17.1081 70.4028 17.1567 69.7721 17.3025C64.8715 18.0315 65.939 10.6439 68.8987 10.6925Z" fill="#373780"/>
<path d="M59.971 34.7509C61.0385 34.7023 62.1544 34.9939 62.9793 35.6257C64.629 36.8894 71.4703 35.9659 72.2466 36.1118C73.023 36.2576 74.9638 43.7424 70.3058 44.277C65.6479 44.763 62.397 43.791 61.4752 44.277C60.5533 44.763 60.5533 47.2904 60.99 48.0194C61.4266 48.7485 61.6207 52.4423 56.332 51.2272H56.0409C55.7013 51.616 55.1675 51.9562 54.2942 52.1506C51.8196 52.7825 48.5203 50.3523 51.1404 46.5613C52.1593 45.2005 51.7711 43.1105 51.7711 43.1105C51.7711 43.1105 51.0918 45.3949 48.5203 43.6452C46.3369 42.1871 47.5013 39.0765 49.1995 37.7642L49.2481 37.7156C48.5203 37.0352 47.5499 36.1604 46.8706 34.6537C45.5605 31.7375 48.5688 29.842 51.7711 31.2515C51.7711 31.2515 50.4611 15.7472 65.3568 6.75574C66.6183 8.55404 64.823 10.8384 64.2893 11.859C63.7556 12.8797 63.7071 15.164 65.5994 17.0109C64.3864 19.0522 61.3296 20.1701 60.3107 26.3426C59.7284 29.7934 59.3888 33.2928 59.971 34.6537V34.7509Z" fill="#373780"/>
<path d="M38.3309 10.3038C38.9132 10.7898 39.4954 11.2759 39.7865 11.8591C40.9995 14.0948 39.0102 18.9551 33.1393 14.5808C32.9937 14.4836 32.8481 14.3864 32.7026 14.2406C32.1689 13.8518 31.5381 13.6088 30.8588 13.5602C26.8802 13.2686 15.575 13.0742 11.3052 14.192C10.5289 14.7266 9.70402 15.0669 8.78213 15.2127C5.19164 15.6501 4.75496 12.1021 5.72536 11.13C6.35612 8.94292 4.26975 9.08873 4.12419 6.61C3.97863 4.32567 8.00581 1.60392 11.6448 5.29772C13.5371 6.22117 30.6162 6.02676 32.1203 5.73515C36.2446 2.38156 41.3877 4.42288 38.3309 10.3038Z" fill="#373780"/>
<path d="M19.5052 52.6854C19.117 53.0256 18.6803 53.3658 17.807 53.5116C15.5265 53.8518 11.4023 50.8871 16.5454 45.7838C17.6614 44.1313 17.5158 22.2115 17.1762 17.8372C17.1277 16.4764 18.3892 15.4557 21.446 15.5529C24.5028 15.6015 25.9584 15.2613 25.7158 18.7121C25.4732 21.9199 24.8424 40.1459 25.0365 45.3464C25.0365 45.9296 25.2306 46.4642 25.5217 46.9502C26.6376 48.6513 27.2684 50.644 26.201 52.1507C24.5513 54.4351 21.3489 54.0948 19.5537 52.734L19.5052 52.6854Z" fill="#373780"/>
<path d="M75.352 76.9867C75.4005 75.9174 75.7886 74.7995 75.9342 74.1677C75.4975 72.904 75.7401 71.3002 77.3898 70.7655C86.1234 69.6963 92.9163 79.1252 92.334 89.7692C92.0914 93.8518 91.8973 97.011 90.5873 100.267C87.2879 108.578 79.0395 114.022 70.1118 113.682C62.7852 113.39 55.6042 109.307 53.7605 99.2467C50.5096 81.9927 58.9036 76.1118 65.842 70.8627C68.8017 65.6136 73.8478 67.898 73.6537 70.8627C73.5082 72.7096 72.7804 73.0498 72.2952 73.7789C73.6537 74.7023 74.1875 75.8202 74.1389 76.9381C74.0419 79.0766 71.9555 81.1179 70.0632 81.1179C68.8988 81.1179 68.2195 80.6319 67.6858 80.1458C67.4432 80.2916 59.4373 85.5893 61.3781 96.5249C63.3675 107.558 79.8158 111.106 83.3578 96.0389C86.8998 80.9721 79.9128 80.0486 77.1957 79.5626C75.6431 79.3196 75.3034 78.2017 75.352 76.9867Z" fill="#FFC578"/>
<path d="M198.302 110.134C197.574 100.219 206.162 102.795 206.696 106.78C209.462 109.016 217.807 106.051 217.371 102.309C216.885 98.0803 211.742 99.4897 203.882 93.3172C196.022 87.1447 195.585 79.3196 200.388 73.3901C205.143 67.4606 214.993 68.6757 214.993 68.6757C219.069 65.0305 224.746 68.3354 221.01 72.8069C221.737 73.5359 222.514 74.265 222.028 76.2091C221.398 78.9794 215.624 79.0766 214.556 76.2091C209.704 75.8688 202.96 80.3889 209.025 85.7352C215.09 91.1301 224.018 90.8871 226.492 100.899C228.676 109.794 216.788 118.25 205.871 114.751C204.027 113.973 202.96 116.744 200.097 116.306C197.865 115.917 196.458 112.612 198.302 110.134Z" fill="#FFBFE0"/>
<path d="M208.249 41.1178C213.586 35.3827 210.432 16.0875 209.462 13.7059C204.61 8.65126 207.958 4.37422 210.917 4.56863C212.421 4.66584 212.373 5.58929 212.664 6.51274C218.681 1.70108 225.668 8.01942 219.894 13.2685C218.438 14.8724 220.185 25.1762 219.894 30.1822C219.602 35.1883 219.894 45.8809 212.421 49.1859C203.591 52.7339 195.876 48.9915 192.916 49.9635C185.881 53.0255 185.687 47.2904 186.9 46.2697C187.337 45.8809 187.87 45.4921 188.307 45.1033L188.258 45.0061C188.258 45.0061 186.463 40.2916 189.763 38.9307C192.722 37.667 194.129 41.3123 195.925 41.7983C197.38 42.0413 204.319 42.0413 208.249 41.1178Z" fill="#BFB0FF"/>
<path d="M184.765 11.6646C183.94 11.13 182.97 10.3038 182.436 8.01945C181.563 4.22844 186.318 2.04132 188.355 5.20049C189.568 5.63792 190.442 3.06198 194.032 3.15918C197.623 3.25639 198.496 9.52613 194.032 11.5188C193.062 14.5808 191.267 24.7874 199.175 26.2941C203.639 26.8773 205.532 22.9405 207.618 22.9405C209.704 22.9405 209.801 26.7315 208.782 28.9672C208.977 30.3767 209.85 34.4107 203.833 34.7023C197.817 34.9939 187.773 34.6051 185.105 24.7874C183.406 17.3998 185.493 15.1154 184.765 11.6646Z" fill="#BFB0FF"/>
<path d="M155.556 110.911C152.742 110.279 151.238 107.266 156.138 101.92C157.545 99.5383 156.478 91.7618 155.992 88.4568C155.507 85.1033 155.216 83.0133 156.817 83.4022C158.37 83.791 159.583 82.8675 162.494 81.4094C164.095 80.5832 165.794 81.6525 165.114 83.9368C164.678 85.3949 164.629 87.096 164.678 88.1166C165.648 88.7485 169.918 84.4714 172.247 87.5334C173.799 89.6233 171.616 90.9842 171.907 92.5881C173.702 94.192 172.635 97.5455 169.287 96.3791C168.947 95.9417 165.939 95.3098 165.26 96.0875C164.581 96.8651 164.581 102.746 165.891 104.204C169.433 105.079 176.08 104.885 176.856 104.253C177.584 101.191 186.512 98.7606 183.698 108.53C186.997 111.835 183.406 116.452 179.04 113.196C179.04 113.196 167.492 111.932 163.707 113.827C160.942 116.112 158.273 115.869 157.642 113.827C157.254 112.467 156.187 111.252 155.556 110.911Z" fill="#71B3FF"/>
<path d="M182.824 75.6258C183.067 76.0146 183.358 76.4034 183.6 76.7923C184.91 78.5906 182.436 82.5274 177.924 78.785C177.924 78.785 164.144 76.9381 161.912 78.8336C160.359 80.1458 157.497 81.9927 155.313 80.6319C151.868 78.5419 155.41 73.6817 155.41 73.6817C155.119 73.2443 154.925 72.6124 154.925 71.3488C154.974 68.1896 161.087 65.2734 162.397 69.9879C163.804 70.8141 175.401 70.4739 176.565 70.0851C180.544 66.4399 186.754 68.7728 182.824 75.6258Z" fill="#71B3FF"/>
<path d="M140.418 6.99886C136.196 5.10336 141.728 -2.18705 145.755 2.333C149.2 4.0827 163.61 3.15925 166.327 3.01344C172.247 0.437499 175.595 2.57602 172.586 9.04017L172.538 9.08878C172.878 9.5748 173.169 10.1094 173.314 10.9357C173.702 13.5116 169.966 15.9904 166.085 12.6368C164.581 11.3245 162.931 10.6927 147.162 10.9843C144.881 11.2759 143.377 14.2407 140.369 12.6368C138.38 11.4703 140.418 6.99886 140.418 6.99886Z" fill="#FFE780"/>
<path d="M154.488 50.0121C154.052 50.4982 153.372 50.9356 152.111 50.9356C149.2 50.9356 146.677 47.4362 149.345 43.791C150.413 42.3815 151.092 22.017 150.849 15.5042C150.801 14.3864 151.48 13.3171 152.548 12.9769C153.469 12.6853 154.537 12.6367 155.459 13.3657C156.526 13.5115 160.456 12.1506 159.729 15.65C159.146 18.6148 159.049 36.452 159.001 41.9927C159.001 42.8189 159.146 43.6938 159.729 44.3256C162.203 46.8043 161.669 53.2685 154.488 50.0121Z" fill="#FFE780"/>
<path d="M130.956 99.0037C132.654 97.6428 133.673 83.8882 132.606 80.1458C127.366 73.5845 132.8 70.6197 135.565 71.3974C136.487 71.6404 137.021 72.0778 137.603 72.6124L137.943 72.5638C137.943 72.5638 142.843 69.113 144.299 74.2649C145.367 77.9101 142.213 79.1738 141.436 80.4861C140.66 81.7983 141.533 88.8943 140.854 95.0669C140.175 101.288 139.496 102.795 141.97 106.877C144.445 110.96 141.582 114.605 139.981 113.779C138.962 113.293 138.186 112.418 137.118 112.029L137.021 112.272C135.954 115.334 130.18 116.452 128.579 112.855C127.754 111.009 128.239 109.842 128.627 108.87C128.336 106.829 126.492 104.982 119.893 99.4411C112.276 93.0742 116.546 89.9636 115.915 88.8943C115.235 87.8251 114.168 82.1872 117.176 81.1665C119.457 80.3889 120.864 86.5614 121.834 89.5262C122.756 92.4423 129.209 98.6149 130.956 99.0037Z" fill="#E58DC9"/>
<path d="M101.359 44.5201C99.2239 41.3123 101.941 37.3269 105.337 38.6392C107.569 39.514 107.521 41.2637 110.82 41.5067C113.392 41.7011 119.069 40.7777 119.602 36.8895C120.088 33.0498 113.052 31.8348 106.696 28.9672C100.34 26.0997 97.8168 18.6148 100 11.8105C102.426 4.08265 109.995 2.52736 115.624 2.13854C116.352 2.08994 117.031 1.89553 117.613 1.50671C121.543 -0.874825 126.977 0.874871 123.435 7.33903C123.678 7.58204 123.872 7.87366 124.066 8.26248C125.134 10.9356 122.028 14.3864 118.098 10.0608C114.556 9.91497 106.696 10.5468 107.86 17.0596C109.025 23.5723 114.459 22.0656 123.29 27.7522C129.403 31.689 132.169 45.6865 118.486 48.6999C113.392 49.1859 110.772 49.0887 108.734 48.9429C107.521 48.8457 106.259 49.0887 105.192 49.672C103.348 50.5954 101.165 51.6161 99.6606 48.7971C98.7872 47.3876 99.3209 45.1519 101.359 44.5201Z" fill="#9CF6D4"/>
<path d="M104.513 78.5906C99.1753 73.0013 107.23 67.3634 111.257 73.0985V73.1471C113.586 72.5638 114.896 71.3002 116.837 73.0013C118.583 74.6052 116.982 78.299 115.187 80.4861C114.799 80.9235 114.605 81.5067 114.556 82.09C114.314 87.4849 114.12 100.705 114.071 104.885C114.071 105.662 114.314 106.391 114.75 106.975C115.478 107.947 116.4 109.648 115.818 111.446C113.925 116.987 110.869 113.925 107.036 114.119C105.434 114.751 103.591 114.411 102.426 113.001C101.116 111.397 100.971 108.773 104.513 105.808C104.901 103.767 106.017 81.9442 104.513 78.5906Z" fill="#E58DC9"/>
<path d="M73.9449 14.4836C73.3626 14.435 72.6833 14.4836 72.0526 14.6294C67.152 15.407 68.2195 8.06802 71.1792 8.06802C70.7425 7.43619 70.2573 6.70715 70.0147 5.63789C68.8988 1.06924 77.9235 -2.28435 78.6513 6.56134C79.3791 7.92221 84.8619 13.9975 85.2501 25.3706C85.6382 36.695 84.0371 44.2284 84.2797 45.7837C87.9672 48.3596 85.7353 55.5042 79.6217 51.8104H79.0395C78.6028 52.0048 77.972 52.1506 77.0016 52.1506C73.7993 52.1506 73.1685 47.9708 76.2253 45.4921C77.0987 43.791 79.4762 22.2114 73.9449 14.678V14.4836Z" fill="#FFC0FC"/>
<path d="M58.2728 48.6027C57.9332 48.9915 57.3995 49.3317 56.5261 49.5261C54.0516 50.158 50.7522 47.7278 53.3723 43.9368C54.3912 42.5759 54.0031 40.486 54.0031 40.486C54.0031 40.486 53.3238 42.7704 50.7522 41.0207C48.5688 39.5626 49.7333 36.452 51.4315 35.1397L51.48 35.0911C50.7522 34.4107 49.7818 33.5358 49.1025 32.0292C47.7925 29.113 50.8007 27.2175 54.0031 28.627C54.0031 28.627 52.693 13.1227 67.5887 4.13123C68.8502 5.92952 67.055 8.21385 66.5213 9.23451C65.9875 10.2552 65.939 12.5395 67.8313 14.3864C66.6183 16.4277 63.5615 17.5456 62.5426 23.7181C61.9604 27.1689 61.6207 30.6683 62.203 32.0292V32.1264C63.2704 32.0778 64.3864 32.3694 65.2112 33.0012C66.8609 34.2649 73.7022 33.3414 74.4786 33.4872C75.2549 33.6331 77.1957 41.1179 72.5378 41.6525C67.8798 42.1385 64.629 41.1665 63.7071 41.6525C62.7852 42.1385 62.7852 44.6659 63.2219 45.3949C63.6586 46.1239 63.8526 49.8177 58.5639 48.6027H58.2728Z" fill="#FFC0FC"/>
<path d="M13.5857 11.5675C12.8094 12.1021 11.9845 12.4423 11.0626 12.5882C7.47216 13.0256 7.03547 9.47759 8.00588 8.50553C8.63664 6.31841 6.55027 6.46422 6.40471 3.98548C6.25915 1.70116 10.2863 -1.02059 13.9253 2.67321C15.7691 3.59666 32.8482 3.40225 34.3523 3.11064C38.4766 -0.194346 43.6682 1.84697 40.5629 7.72789C41.1452 8.21392 41.7274 8.69994 42.0185 9.28318C43.2315 11.5189 41.2422 16.3792 35.3713 12.0049C35.2257 11.9077 35.0801 11.8105 34.9346 11.6647C34.4009 11.2759 33.7701 11.0329 33.0908 10.9843C29.1607 10.6441 17.807 10.4496 13.5857 11.5675Z" fill="#C8FF8D"/>
<path d="M17.6614 106.731C18.0496 106.537 18.6804 106.44 19.5537 106.683C29.5489 108.773 32.7997 100.024 31.053 97.6428C29.3063 95.2613 27.7051 94.4836 28.6755 93.5602C29.6459 92.5881 31.6353 93.949 31.053 92.4909C30.8104 91.8591 30.8589 91.2758 31.1501 90.7412C31.8779 89.5261 33.6246 89.3803 34.595 90.4496C37.7003 93.9004 41.0482 100.608 37.118 106.488C29.0152 117.521 20.2815 113.244 17.2733 115.188C16.9336 115.82 16.5455 116.452 15.6721 116.938C14.7017 117.473 13.5857 117.57 12.5668 117.23C9.89822 116.355 10.529 113.584 8.24853 113.779V113.633C5.24028 113.779 2.42611 110.377 5.09472 106.731C6.2592 104.107 5.0462 84.2771 4.70655 79.028C4.65803 78.2989 4.31839 77.6185 3.73615 77.0839C0.582338 74.2649 2.95983 69.2588 6.21068 69.4532C7.90889 69.5504 8.29705 70.2309 8.58817 70.9599C10.8686 67.9952 15.7206 67.898 16.2058 72.3208C16.691 76.695 14.1195 75.0911 13.4402 78.1531C12.7609 81.2151 13.7313 91.0328 13.8284 97.011C13.9254 102.989 14.6532 102.357 14.3136 104.739C15.8662 103.961 18.3892 105.468 17.6614 106.731Z" fill="#F7E5C1"/>
<path d="M22.8531 94.5322C21.9797 96.4763 20.1845 98.2746 17.8555 97.254C15.1384 96.1361 15.8662 92.4909 16.0117 90.0122C15.5751 89.6233 15.1869 88.9915 15.1869 87.7765C15.1869 84.2771 19.9419 84.7631 20.5241 86.6586C20.5241 86.6586 24.8909 86.4156 27.8992 82.6732C31.6838 77.9101 28.627 74.1191 25.0365 74.9453C21.8827 75.6744 19.6993 77.8129 17.904 76.6464C16.4969 74.5565 19.5052 73.3901 19.02 71.9806C18.5348 70.5711 16.6425 70.1823 16.8366 68.4326C17.6129 67.8493 24.9394 66.0024 30.8104 67.7521C36.1476 69.356 40.3203 78.1045 34.3038 85.5893C27.7051 93.949 25.3761 91.7619 22.8531 94.5322Z" fill="#F7E5C1"/>
<path d="M21.7857 50.1094C21.3975 50.4496 20.9608 50.7899 20.0875 50.9357C17.807 51.2759 13.6828 48.3111 18.826 43.2078C19.9419 41.5554 19.7964 19.6356 19.4567 15.2613C19.4082 13.9004 20.6697 12.8798 23.7265 12.977C26.7833 13.0256 28.2389 12.6854 27.9963 16.1362C27.7537 19.3439 27.1229 37.5699 27.317 42.7704C27.317 43.3537 27.5111 43.8883 27.8022 44.3743C28.9182 46.0754 29.5489 48.0681 28.4815 49.5748C26.8318 51.8591 23.6295 51.5189 21.8342 50.158L21.7857 50.1094Z" fill="#C8FF8D"/>
<path d="M10.4804 13.0741C9.02478 13.0741 7.90882 12.4423 7.3751 11.2758C6.84138 10.158 6.98694 8.79711 7.66622 8.11668C8.49106 7.29043 9.12182 6.17257 9.0733 5.49213C9.0733 5.24912 8.97626 5.10331 8.87922 5.05471C8.68514 4.8603 8.63662 4.56868 8.8307 4.37427C9.02478 4.17986 9.3159 4.13126 9.50999 4.32567C9.84963 4.61728 9.99519 5.0061 10.0437 5.44353C10.0922 6.56139 9.21886 7.92226 8.3455 8.79711C8.00586 9.13733 7.90882 10.0122 8.29698 10.8384C8.53958 11.3731 9.26739 12.2479 11.0141 12.0535C11.7904 11.9563 12.6153 11.6647 13.3431 11.13C13.5857 10.9356 13.8768 10.7412 14.0709 10.4982C14.7016 9.86637 15.5265 9.08873 16.691 9.08873C16.9821 9.08873 17.1762 9.28314 17.1762 9.57476C17.1762 9.86637 16.9821 10.0608 16.691 10.0608C15.9632 10.0608 15.4294 10.5468 14.7502 11.1786C14.5076 11.4217 14.2164 11.6647 13.8768 11.9077C13.0034 12.4909 12.0816 12.8797 11.1112 12.9769C10.8686 13.0741 10.6745 13.0741 10.4804 13.0741Z" fill="#373780"/>
<path d="M7.95737 8.99159C7.90885 8.99159 7.86033 8.99159 7.81181 8.99159C7.56921 8.94299 7.42365 8.65137 7.47217 8.40836C7.71477 7.48491 7.42365 7.14469 6.98697 6.61006C6.50176 6.07543 5.91952 5.34639 5.871 4.03412C5.82248 2.72185 6.79289 1.36097 8.24849 0.729135C10.1893 -0.145713 12.4212 0.486122 14.2165 2.33302C14.6046 2.72185 14.9928 3.20787 15.3324 3.6939C15.478 3.88831 15.4295 4.22853 15.1869 4.37434C14.9443 4.52014 14.6532 4.47154 14.5076 4.22853C14.2165 3.7911 13.8768 3.35368 13.4887 3.01346C11.3053 0.777738 9.31594 1.31237 8.58813 1.65259C7.52069 2.13861 6.79289 3.11067 6.84141 3.98551C6.88993 5.00617 7.32661 5.4922 7.71477 5.97822C8.19997 6.56146 8.78221 7.24189 8.39405 8.65137C8.39405 8.84578 8.19997 8.99159 7.95737 8.99159Z" fill="#373780"/>
<path d="M40.5629 8.21386C40.4659 8.21386 40.4174 8.21386 40.3203 8.16526C40.0777 8.01945 39.9807 7.72784 40.1262 7.48482C41.2907 5.2977 41.2907 3.4994 40.2233 2.62456C39.1073 1.70111 36.8754 1.70111 34.6435 3.4994C34.5949 3.54801 34.4979 3.59661 34.4494 3.59661C32.9938 3.88823 15.7691 4.13124 13.6827 3.11058C13.4401 3.01338 13.3431 2.72176 13.4401 2.47875C13.5372 2.23574 13.8283 2.13853 14.0709 2.23574C15.8176 3.06198 32.0234 2.91617 34.1097 2.67316C36.3902 0.923463 39.2044 0.583244 40.8055 1.89552C41.4848 2.47875 42.9404 4.22844 40.9511 7.97085C40.9026 8.11666 40.757 8.21386 40.5629 8.21386Z" fill="#373780"/>
<path d="M39.544 14.1921C38.4765 14.1921 37.0209 13.7546 35.1286 12.3452C34.9831 12.2479 34.8375 12.1507 34.6919 12.0049C34.2067 11.6647 33.673 11.4703 33.0908 11.4217C29.4518 11.1301 17.9525 10.9357 13.7312 12.0535C13.4401 12.1507 13.1005 11.9077 13.1005 11.5675C13.1005 11.3245 13.246 11.1787 13.4401 11.0815C13.4401 11.0815 13.4401 11.0815 13.4886 11.0815C17.8554 9.91502 29.3547 10.158 33.1878 10.4497C33.9641 10.4983 34.6434 10.7899 35.2742 11.2273C35.4198 11.3245 35.5653 11.4703 35.7109 11.5675C37.9913 13.2686 39.9321 13.706 41.0481 12.734C41.97 11.9077 42.1155 10.401 41.6303 9.5262C41.3877 9.04017 40.757 8.55415 40.2718 8.11672L40.1747 8.01952C39.2528 7.24187 38.3795 6.56144 38.525 5.63799C38.5736 5.39497 38.8162 5.20056 39.0588 5.20056C39.3014 5.24916 39.4954 5.49218 39.4954 5.73519C39.4469 6.12401 40.2232 6.75585 40.8055 7.24187L40.9025 7.33908C41.4363 7.7765 42.1641 8.35974 42.5037 9.04017C43.28 10.4497 42.9404 12.4424 41.7274 13.463C41.2422 13.8032 40.5629 14.1921 39.544 14.1921Z" fill="#373780"/>
<path d="M25.1336 51.7132C23.9691 51.7132 22.8046 51.373 21.8342 50.7412C21.4945 51.0328 20.9608 51.3244 20.136 51.4216C18.8259 51.616 16.9822 50.887 16.2058 49.3317C15.6721 48.2624 15.2354 46.0267 18.3893 42.9162C19.3597 41.2637 19.2626 20.3159 18.923 15.3098C18.8745 14.678 19.1171 14.0948 19.5537 13.6087C20.3301 12.8311 21.7371 12.4423 23.7265 12.4909C24.0176 12.4909 24.3087 12.4909 24.5513 12.4909C26.0554 12.4909 27.1714 12.5395 27.8507 13.2685C28.3844 13.8517 28.53 14.7266 28.4329 16.1361C28.1903 19.4411 27.5596 37.5699 27.7536 42.7217C27.7536 43.2078 27.8992 43.6938 28.1903 44.0826C29.6459 46.3669 29.8885 48.4083 28.8696 49.8663C28.1418 50.8384 27.1229 51.4702 25.9099 51.6646C25.6673 51.6646 25.3762 51.7132 25.1336 51.7132ZM22.5135 50.0121C23.4839 50.5954 24.6969 50.8384 25.7643 50.6926C26.7347 50.5468 27.5596 50.0607 28.0933 49.2831C29.1607 47.7764 28.0933 45.7351 27.3655 44.6172C27.0258 44.0826 26.7832 43.4022 26.7832 42.7703C26.5892 37.6185 27.2199 19.4411 27.4625 16.0875C27.5596 14.9696 27.4625 14.2892 27.1229 13.949C26.7347 13.5115 25.8128 13.5115 24.5028 13.5115C24.2117 13.5115 23.9691 13.5115 23.6294 13.5115C21.9797 13.4629 20.7667 13.7545 20.1845 14.3378C19.9419 14.5808 19.7963 14.921 19.8449 15.2612C20.0875 18.8578 20.4271 41.6039 19.1171 43.4994C19.1171 43.548 19.0685 43.548 19.0685 43.548C17.0307 45.5407 16.3029 47.4362 17.0307 48.8943C17.6129 50.0607 19.02 50.5954 19.9419 50.4496C20.7182 50.3524 21.1064 50.0607 21.349 49.7691C21.446 49.6719 21.5431 49.5261 21.6886 49.4289C22.1738 48.8943 22.7561 48.311 24.1146 48.068C24.3572 48.0194 24.6484 48.2138 24.6484 48.4569C24.6484 48.6999 24.5028 48.9915 24.2602 48.9915C23.3383 49.1859 22.9502 49.5261 22.5135 50.0121Z" fill="#373780"/>
<path d="M60.5047 49.3318C59.9225 49.3318 59.2917 49.2346 58.5154 49.0888C58.2728 49.0402 58.0787 48.7486 58.1272 48.5055C58.1758 48.2625 58.4669 48.0681 58.7095 48.1167C60.6503 48.5541 62.0089 48.3597 62.5911 47.5335C63.1248 46.8045 62.9307 45.8324 62.8337 45.638C62.4455 45.0062 62.397 43.5481 62.6396 42.5274C62.8337 41.8956 63.1248 41.4582 63.513 41.2637C64.0467 40.9721 64.9201 41.0693 66.3271 41.1665C67.8798 41.3123 70.0147 41.4582 72.5377 41.2151C73.7022 41.0693 74.4785 40.4861 74.8667 39.3196C75.546 37.3269 74.7697 34.508 74.3815 34.0219C74.1389 34.0219 73.4596 34.0705 72.8289 34.0705C69.5295 34.265 66.1816 34.4108 64.9686 33.4387C64.2893 32.9041 63.3189 32.6125 62.3 32.6611C61.2325 32.7097 60.3592 33.1471 60.068 33.7303C59.9225 33.9733 59.6314 34.0706 59.4373 33.9247C59.1947 33.7789 59.0976 33.4873 59.2432 33.2929C59.7284 32.3695 60.8929 31.7376 62.3 31.689C63.513 31.6404 64.7745 31.9806 65.5993 32.6611C66.6668 33.4873 70.791 33.2443 72.8289 33.0985C73.8963 33.0499 74.43 33.0013 74.6726 33.0499C75.5945 33.2443 76.2253 36.0147 76.1282 37.813C76.0312 40.3889 74.8182 41.9442 72.6833 42.1872C70.0632 42.4788 67.8798 42.2844 66.2786 42.1386C65.2597 42.0414 64.2893 41.9928 63.9982 42.1386C63.8526 42.2358 63.7071 42.4788 63.61 42.819C63.3674 43.6939 63.4645 44.8603 63.6585 45.2006C63.9982 45.7838 64.0952 47.1447 63.3674 48.1653C62.9307 48.7486 62.1059 49.3318 60.5047 49.3318Z" fill="#373780"/>
<path d="M55.7498 50.1094C54.4882 50.1094 53.2267 49.4776 52.4989 48.5055C51.9652 47.7279 51.3344 46.0754 52.9841 43.6939C53.3723 43.1592 53.5178 42.4788 53.5664 41.8956C53.4693 41.9928 53.3238 42.0414 53.1782 42.09C52.4019 42.3816 51.5285 42.1386 50.5096 41.4582C49.6362 40.8749 49.151 40.0001 49.1025 38.9308C49.054 37.4727 49.8788 35.7716 51.1403 34.7996C51.3344 34.6538 51.6741 34.6538 51.8196 34.8968C51.9652 35.0912 51.9652 35.4314 51.7226 35.5772C50.7037 36.3549 50.0244 37.7643 50.0729 38.8822C50.1214 39.6112 50.4125 40.2431 51.0433 40.6319C51.7711 41.1179 52.4019 41.3123 52.8386 41.1665C53.3723 40.9721 53.5664 40.3889 53.5664 40.3889C53.6149 40.1945 53.809 40.0487 54.0516 40.0487C54.2942 40.0487 54.4397 40.2431 54.4882 40.4375C54.4882 40.5347 54.8764 42.7704 53.7604 44.2771C52.79 45.6866 52.596 46.9989 53.2752 47.9709C53.906 48.8944 55.216 49.3804 56.3805 49.0888C57.0598 48.943 57.545 48.6514 57.8847 48.2625C58.1273 48.0195 58.2728 47.7279 58.4184 47.4849C58.758 46.9017 59.1462 46.2698 60.2136 46.124C60.4562 46.0754 60.6988 46.2698 60.7473 46.5614C60.7959 46.8531 60.6018 47.0475 60.3107 47.0961C59.7769 47.1447 59.5829 47.4363 59.2432 47.9709C59.0491 48.2625 58.8551 48.6027 58.5639 48.943C58.0787 49.4776 57.3994 49.8178 56.5746 50.0122C56.332 50.1094 56.0409 50.1094 55.7498 50.1094Z" fill="#373780"/>
<path d="M52.4019 37.5213C52.3534 37.5213 52.3048 37.5213 52.3048 37.5213C52.0622 37.4727 51.8682 37.181 51.9652 36.938C52.0622 36.5006 51.8682 36.1604 51.1889 35.5286L51.0433 35.3828C50.364 34.7023 49.3936 33.8275 48.7143 32.3208C48.1321 30.9599 48.2777 29.6476 49.1995 28.7728C50.2185 27.8007 51.8682 27.5091 53.5664 28.0437C53.5664 24.7874 54.3427 11.7618 67.4431 3.83961C67.6857 3.69381 67.9283 3.79101 68.0739 3.98542C69.2869 5.78372 68.0254 7.92224 67.3461 9.0887C67.2491 9.28311 67.152 9.42892 67.055 9.57473C66.6668 10.3038 66.4727 12.3937 68.268 14.1434C68.4135 14.2892 68.4621 14.5322 68.365 14.7266C67.9769 15.3584 67.4917 15.8931 66.9094 16.4277C65.5508 17.8372 63.8526 19.5869 63.1248 23.8639C62.203 29.4532 62.4941 31.3001 62.7367 31.932C62.8337 32.175 62.7367 32.4666 62.4941 32.5638C62.2515 32.661 61.9604 32.5638 61.8633 32.3208C61.3296 31.0571 61.4266 28.141 62.203 23.7181C62.9793 19.1495 64.8716 17.2053 66.2301 15.7473C66.6668 15.3098 67.055 14.921 67.3461 14.5322C65.5023 12.5395 65.6479 10.158 66.2301 9.0887C66.3272 8.94289 66.4242 8.74848 66.5213 8.55407C67.1035 7.58202 67.9769 6.12394 67.4917 4.90887C53.5178 13.706 54.5368 28.5298 54.5368 28.6756C54.5368 28.87 54.4882 29.0158 54.3427 29.113C54.1971 29.2102 54.003 29.2102 53.8575 29.1616C52.1108 28.384 50.6066 28.7242 49.8788 29.4532C49.2481 30.0851 49.151 30.9599 49.5877 31.932C50.1699 33.2442 50.9948 34.0705 51.6741 34.7023L51.8196 34.8481C52.4019 35.3827 53.1297 36.1118 52.8871 37.181C52.79 37.3755 52.596 37.5213 52.4019 37.5213Z" fill="#373780"/>
<path d="M82.8241 53.3172C81.8536 53.3172 80.6892 52.977 79.3791 52.1993C79.1365 52.0535 79.088 51.7619 79.2336 51.5189C79.3791 51.2759 79.6702 51.2273 79.9128 51.3731C82.1933 52.734 84.1341 52.6854 85.1045 51.1787C86.0264 49.7692 85.7838 47.4363 84.0371 46.2212C83.94 46.1726 83.843 46.0268 83.843 45.9296C83.7459 45.3464 83.843 44.1313 84.0856 42.09C84.4252 38.6392 85.056 32.8069 84.8134 25.4679C84.4737 15.8931 80.5436 10.2066 78.8454 7.77649C78.5543 7.33907 78.3117 7.04745 78.2146 6.80444C78.1661 6.75583 78.1661 6.70723 78.1661 6.61003C77.972 4.08269 77.0016 2.38159 75.4975 1.74976C74.236 1.21513 72.6348 1.55535 71.5188 2.5274C70.5484 3.35365 70.1603 4.42291 70.4514 5.54077C70.694 6.56142 71.1307 7.24186 71.5188 7.77649C71.6644 7.9709 71.6159 8.31112 71.4218 8.45693C71.2277 8.60274 70.8881 8.55413 70.7425 8.35972C70.3058 7.77649 69.7721 6.95024 69.481 5.78378C69.1414 4.3743 69.6266 2.86762 70.8396 1.79836C72.2466 0.583295 74.1875 0.194473 75.7886 0.874911C76.8561 1.31233 78.6998 2.62461 79.0395 6.41562C79.1365 6.61003 79.3306 6.85304 79.5732 7.19326C81.1258 9.47758 85.3471 15.5043 85.6867 25.3221C85.9293 32.7583 85.3471 38.5906 84.9589 42.09C84.8134 43.6453 84.6678 44.8603 84.7163 45.4436C86.8027 47.0475 86.9968 49.8664 85.8808 51.6161C85.2986 52.5882 84.2797 53.3172 82.8241 53.3172Z" fill="#373780"/>
<path d="M71.7129 11.6647C71.6158 11.6647 71.4703 11.6161 71.3732 11.5189C71.1792 11.3245 71.1306 11.0328 71.3247 10.8384C72.004 10.1094 71.8099 9.81778 71.0821 8.79712C70.9851 8.65132 70.888 8.50551 70.7425 8.3597C70.5969 8.16529 70.6454 7.82507 70.8395 7.67926C71.0336 7.53345 71.3732 7.58206 71.5188 7.77647C71.6158 7.92227 71.7129 8.06808 71.8584 8.21389C72.5377 9.13734 73.2655 10.1094 72.0525 11.4703C72.004 11.6161 71.8584 11.6647 71.7129 11.6647Z" fill="#373780"/>
<path d="M77.0016 52.5882C75.546 52.5882 74.43 51.8105 73.9448 50.4983C73.4111 49.0402 73.7993 46.8045 75.8371 45.1034C76.7105 42.8677 78.7483 21.9685 73.5567 14.8725C73.4111 14.6781 73.4596 14.3379 73.6537 14.1921C73.8478 14.0463 74.1874 14.0949 74.333 14.2893C79.9613 21.9199 77.5353 43.8397 76.662 45.638C76.6134 45.6866 76.5649 45.7352 76.5164 45.7838C74.8182 47.1933 74.4786 49.0402 74.8667 50.1581C75.2064 51.0815 75.9827 51.5675 77.0016 51.5675C77.8265 51.5675 78.4087 51.4703 78.8454 51.2759C79.1365 51.1301 79.3306 50.9357 79.5247 50.6927C79.8643 50.3525 80.2039 49.9636 80.9803 49.8664C81.2229 49.8178 81.514 50.0122 81.514 50.3039C81.5625 50.5469 81.3684 50.8385 81.0773 50.8385C80.6406 50.8871 80.4465 51.0815 80.2039 51.3731C79.9613 51.6161 79.7187 51.9078 79.2335 52.1508C78.6998 52.491 77.972 52.5882 77.0016 52.5882Z" fill="#373780"/>
<path d="M76.5164 17.0109C76.3223 17.0109 76.1283 16.8651 76.0797 16.6707C75.6916 15.6015 75.0123 15.0668 73.9448 14.9696C73.4596 14.921 72.8289 14.9696 72.1981 15.1154C70.3544 15.407 69.384 14.678 68.8988 13.9976C67.9284 12.6853 68.1224 10.6926 68.8017 9.38031C69.384 8.26245 70.2573 7.63062 71.2762 7.63062C71.5674 7.63062 71.7614 7.82503 71.7614 8.11664C71.7614 8.40826 71.5674 8.60267 71.2762 8.60267C70.4029 8.60267 69.8692 9.47752 69.6751 9.81774C69.0443 11.0328 69.0928 12.5881 69.7236 13.4629C70.2088 14.1434 70.9851 14.3864 72.1011 14.192C72.8289 14.0462 73.5567 13.9976 74.1389 14.0462C75.5945 14.192 76.5649 14.9696 77.0987 16.3791C77.1957 16.6221 77.0501 16.9137 76.8075 17.0109C76.6135 17.0109 76.5649 17.0109 76.5164 17.0109Z" fill="#373780"/>
<path d="M182.873 76.1118C182.727 76.1118 182.533 76.0146 182.436 75.8688C182.29 75.6258 182.339 75.3342 182.581 75.1884H182.63C182.873 75.0426 183.164 75.1398 183.309 75.3342C183.455 75.5772 183.358 75.8688 183.164 76.0146C183.067 76.0632 182.97 76.1118 182.873 76.1118Z" fill="#373780"/>
<path d="M75.3519 77.4727L74.0418 77.4241C73.7507 77.4241 73.5566 77.1811 73.5566 76.9381C73.5566 76.6464 73.7992 76.452 74.0418 76.452L75.3519 76.5006C75.5945 76.5006 75.8371 76.7436 75.8371 76.9867C75.8371 77.2297 75.643 77.4727 75.3519 77.4727Z" fill="#373780"/>
<path d="M188.355 45.4922C188.21 45.4922 188.064 45.4436 188.016 45.3464L187.967 45.2491C187.773 45.0547 187.822 44.7631 188.016 44.5687C188.21 44.3743 188.501 44.4229 188.695 44.6173L188.744 44.7145C188.938 44.9089 188.889 45.2005 188.695 45.395C188.549 45.4436 188.452 45.4922 188.355 45.4922Z" fill="#373780"/>
<path d="M172.538 9.52622C172.392 9.52622 172.247 9.42901 172.15 9.33181C172.004 9.0888 172.053 8.79718 172.295 8.65137L172.344 8.60277C172.586 8.45696 172.877 8.50556 173.023 8.74858C173.169 8.99159 173.12 9.28321 172.877 9.42901L172.829 9.47762C172.732 9.52622 172.635 9.52622 172.538 9.52622Z" fill="#373780"/>
<path d="M145.755 2.81898C145.464 2.81898 145.27 2.62457 145.27 2.33295C145.27 2.04133 145.464 1.84692 145.755 1.84692C146.046 1.84692 146.24 2.04133 146.24 2.33295C146.24 2.62457 146.046 2.81898 145.755 2.81898Z" fill="#373780"/>
<path d="M102.184 51.1786C101.116 51.1786 100 50.6926 99.1267 49.0887C98.6415 48.1653 98.593 47.0474 98.9812 46.0753C99.3693 45.1033 100.146 44.3742 101.165 44.0826C101.747 43.8882 102.378 43.8396 103.057 43.9368C103.299 43.9854 103.494 44.2284 103.494 44.4715C103.445 44.7145 103.251 44.9089 102.96 44.9089C102.378 44.8603 101.892 44.9089 101.456 45.0061C100.728 45.2491 100.146 45.7351 99.8546 46.4642C99.5634 47.1932 99.6119 48.0194 99.9516 48.6513C101.213 50.9842 102.863 50.3524 104.852 49.3317C106.017 48.6999 107.327 48.4569 108.685 48.5541C110.723 48.6999 113.343 48.7971 118.341 48.3111C123.581 47.1446 126.88 44.1798 127.608 39.9028C128.384 35.5772 126.347 30.4253 122.95 28.2382C119.651 26.0996 116.837 24.9818 114.508 24.0583C110.626 22.503 108.054 21.4824 107.278 17.1567C106.938 15.2126 107.327 13.6087 108.394 12.3937C110.869 9.52612 116.4 9.52612 118.001 9.62333C118.147 9.62333 118.244 9.67193 118.341 9.76914C119.893 11.4702 121.495 12.1021 122.659 11.373C123.581 10.7898 123.921 9.52612 123.532 8.45686C123.387 8.06804 123.193 7.82503 122.999 7.67922C122.902 7.58202 122.756 7.48481 122.659 7.38761C122.174 6.95018 121.592 6.46416 121.786 5.20049C121.834 4.95747 122.077 4.76306 122.319 4.76306C122.562 4.81166 122.756 5.05468 122.756 5.29769C122.659 6.07533 122.853 6.26974 123.29 6.60996C123.435 6.70717 123.532 6.85298 123.678 6.99878C123.872 7.1932 124.163 7.53341 124.406 8.11665C124.988 9.62333 124.454 11.373 123.193 12.1993C122.611 12.5395 120.524 13.5115 117.758 10.5954C116.012 10.5468 111.208 10.644 109.122 13.0741C108.249 14.0948 107.909 15.407 108.2 17.0595C108.879 20.8505 110.966 21.6768 114.847 23.1835C117.176 24.1069 120.087 25.2248 123.435 27.4119C127.123 29.7934 129.355 35.3341 128.53 40.0486C128.045 42.7704 126.104 47.5334 118.486 49.2345H118.438C113.343 49.7205 110.723 49.6233 108.588 49.4775C107.472 49.3803 106.308 49.6233 105.289 50.158C104.512 50.5954 103.348 51.1786 102.184 51.1786Z" fill="#373780"/>
<path d="M101.359 45.0061C101.213 45.0061 101.068 44.9089 100.971 44.8117C99.6606 42.819 100.097 40.6319 101.116 39.3682C102.184 38.0073 103.882 37.5699 105.532 38.2017C106.502 38.5906 107.084 39.1252 107.618 39.6112C108.394 40.3403 109.073 40.9235 110.917 41.0693C113.586 41.2637 118.729 40.2431 119.166 36.8895C119.505 34.4107 115.769 33.0499 111.499 31.446C109.85 30.8627 108.2 30.2309 106.55 29.4533C100.243 26.6343 97.2831 19.0037 99.5635 11.7133C102.378 2.62458 112.324 1.89554 115.575 1.65253C116.254 1.60393 116.837 1.40952 117.37 1.1179C119.748 -0.340179 122.562 -0.340179 124.018 1.0693C124.843 1.84694 125.959 3.79105 123.872 7.58206C123.727 7.82507 123.435 7.92228 123.193 7.77647C122.95 7.63066 122.853 7.33904 122.999 7.09603C124.309 4.6659 124.406 2.77039 123.338 1.74974C122.174 0.631874 119.796 0.72908 117.856 1.89554C117.225 2.28437 116.449 2.52738 115.624 2.57598C110.238 3.01341 102.863 4.42288 100.437 11.9563C98.2535 18.7607 101.019 25.9053 106.89 28.5298C108.54 29.2589 110.189 29.8907 111.791 30.4739C116.449 32.2236 120.476 33.7303 120.088 36.9381C119.554 41.1665 113.489 42.1386 110.82 41.9442C108.637 41.7983 107.763 40.9721 106.939 40.2431C106.453 39.8056 105.968 39.3682 105.192 39.028C103.93 38.542 102.669 38.8822 101.892 39.9028C101.068 40.9235 100.777 42.6246 101.795 44.2285C101.941 44.4715 101.892 44.7631 101.65 44.9089C101.504 44.9575 101.456 45.0061 101.359 45.0061Z" fill="#373780"/>
<path d="M142.067 7.87371C142.067 7.87371 142.019 7.87371 142.067 7.87371C141.339 7.82511 140.757 7.6793 140.223 7.43629C139.01 6.90166 138.38 5.88101 138.428 4.66594C138.477 2.96484 139.835 1.26375 141.533 0.631916C142.455 0.291698 144.348 0.0486842 146.094 1.99279C146.385 2.28441 146.628 2.67323 146.871 3.06205C147.016 3.30506 146.968 3.59668 146.725 3.74249C146.482 3.8883 146.191 3.83969 146.046 3.59668C145.852 3.25646 145.609 2.96484 145.367 2.67323C144.056 1.16655 142.698 1.21515 141.825 1.55537C140.466 2.04139 139.399 3.40227 139.35 4.71454C139.35 5.29777 139.544 6.07542 140.563 6.56144C141 6.75585 141.485 6.85306 142.067 6.90166C142.31 6.95026 142.552 7.14467 142.504 7.43629C142.504 7.6793 142.31 7.87371 142.067 7.87371Z" fill="#373780"/>
<path d="M172.586 9.52622C172.538 9.52622 172.441 9.52622 172.392 9.47762C172.15 9.38041 172.053 9.0888 172.15 8.84578C173.411 6.17263 173.557 4.13132 172.635 3.15927C171.616 2.13861 169.335 2.23582 166.521 3.49949C166.473 3.49949 166.424 3.54809 166.376 3.54809L165.745 3.59669C154.391 4.22853 147.792 3.98551 145.561 2.81905C145.318 2.67324 145.221 2.38162 145.366 2.18721C145.512 1.9442 145.803 1.847 145.997 1.9928C148.084 3.06206 154.682 3.30508 165.696 2.67324L166.23 2.62464C169.481 1.21516 172.004 1.21516 173.363 2.52743C174.236 3.45088 174.915 5.34639 173.072 9.28321C172.974 9.42901 172.78 9.52622 172.586 9.52622Z" fill="#373780"/>
<path d="M169.918 14.7266C168.559 14.7266 167.152 14.1434 165.793 12.9769C164.435 11.8105 162.931 11.1786 147.259 11.4703C146.531 11.5675 145.9 12.0049 145.172 12.4423C143.862 13.2685 142.358 14.2406 140.223 13.0741C137.797 11.7619 139.738 7.29042 139.981 6.80439C140.078 6.56138 140.369 6.46418 140.611 6.56138C140.854 6.65859 140.951 6.9502 140.854 7.19322C140.369 8.26247 139.301 11.4703 140.66 12.1993C142.31 13.0741 143.377 12.3937 144.639 11.6161C145.415 11.13 146.191 10.644 147.113 10.4982H147.162C163.222 10.2066 164.823 10.887 166.376 12.2479C168.122 13.7546 170.015 14.1434 171.47 13.3658C172.392 12.8311 172.926 11.9077 172.78 10.9842C172.683 10.2552 172.392 9.76916 172.101 9.33173L171.956 9.08872C171.519 8.45689 170.985 7.72785 170.937 6.46418C170.937 6.17256 171.131 5.97815 171.422 5.97815C171.664 5.97815 171.907 6.17256 171.907 6.46418C171.956 7.43623 172.295 7.97086 172.732 8.55409L172.926 8.7971C173.266 9.28313 173.605 9.91496 173.751 10.8384C173.945 12.1507 173.266 13.5116 171.956 14.192C171.325 14.5322 170.646 14.7266 169.918 14.7266Z" fill="#373780"/>
<path d="M154.488 50.4982C154.44 50.4982 154.391 50.4982 154.294 50.4496L154.246 50.401C154.003 50.3038 153.906 50.0122 154.003 49.7692C154.1 49.5261 154.391 49.4289 154.634 49.5261L154.682 49.5747C154.925 49.6719 155.022 49.9636 154.925 50.2066C154.828 50.401 154.682 50.4982 154.488 50.4982Z" fill="#373780"/>
<path d="M157.982 51.4217C157.108 51.4217 155.992 51.1787 154.634 50.5955C154.003 51.1301 153.227 51.4217 152.159 51.4217C150.558 51.4217 149.005 50.4497 148.278 48.9916C147.404 47.2905 147.695 45.2978 149.005 43.4995C149.927 42.1872 150.704 22.4545 150.413 15.5043C150.364 14.1435 151.189 12.8798 152.45 12.491C153.663 12.1021 154.779 12.248 155.701 12.8798C155.895 12.8798 156.186 12.8312 156.478 12.8312C157.594 12.734 159.098 12.5396 159.874 13.4144C160.359 13.9491 160.456 14.7267 160.262 15.7474C159.631 18.7607 159.583 38.1532 159.583 41.9928C159.583 42.8676 159.777 43.5481 160.165 43.9855C161.718 45.5894 162.057 48.457 160.893 50.0608C160.456 50.6441 159.583 51.4217 157.982 51.4217ZM154.488 49.5262C154.537 49.5262 154.634 49.5262 154.682 49.5748C157.254 50.7413 159.195 50.7413 160.068 49.4776C160.941 48.2139 160.65 45.9296 159.437 44.6173C158.855 43.9855 158.564 43.1107 158.564 41.9442C158.564 36.5007 158.661 18.5177 159.292 15.5043C159.437 14.8239 159.389 14.3379 159.146 14.0463C158.661 13.5116 157.448 13.6574 156.575 13.7546C156.138 13.8032 155.75 13.8518 155.459 13.8032C155.362 13.8032 155.313 13.7546 155.216 13.706C154.343 13.0256 153.372 13.1714 152.742 13.3658C151.917 13.6574 151.334 14.4837 151.383 15.4557C151.577 20.9478 151.092 42.3816 149.782 44.0341C148.714 45.5408 148.472 47.1447 149.151 48.5056C149.733 49.672 150.946 50.4011 152.159 50.4011C153.324 50.4011 153.858 50.0122 154.149 49.672C154.246 49.5748 154.391 49.5262 154.488 49.5262Z" fill="#373780"/>
<path d="M154.488 50.4982C154.391 50.4982 154.246 50.4496 154.149 50.3524C153.955 50.158 153.955 49.8664 154.1 49.672C154.246 49.4776 154.391 49.2832 154.537 49.0887C154.828 48.6513 155.168 48.1653 155.847 48.1167C156.089 48.1167 156.332 48.3111 156.381 48.5541C156.381 48.8457 156.186 49.0401 155.944 49.0887C155.75 49.0887 155.653 49.2832 155.362 49.672C155.216 49.8664 155.071 50.1094 154.828 50.3524C154.779 50.4496 154.634 50.4982 154.488 50.4982Z" fill="#373780"/>
<path d="M191.073 8.40825C190.296 8.40825 189.229 8.06803 188.501 6.65855C188.501 6.65855 188.501 6.60995 188.452 6.56135C188.307 6.17252 188.161 5.7837 187.967 5.44348C187.822 5.20047 187.87 4.90886 188.113 4.76305C188.355 4.61724 188.647 4.66584 188.792 4.90886C189.035 5.29768 189.229 5.7351 189.374 6.22113C190.102 7.63061 191.218 7.38759 191.364 7.33899C191.606 7.29039 191.897 7.43619 191.946 7.67921C191.994 7.92222 191.897 8.21384 191.606 8.26244C191.509 8.35965 191.267 8.40825 191.073 8.40825Z" fill="#373780"/>
<path d="M186.075 13.6574C185.832 13.6574 185.59 13.463 185.59 13.22C185.59 12.7826 185.347 12.6368 184.765 12.248L184.522 12.1022C183.503 11.4217 182.533 10.4983 181.999 8.16535C181.466 5.88102 182.824 4.17993 184.28 3.54809C185.687 2.96486 187.628 3.15927 188.792 5.00617C188.938 5.24919 188.889 5.5408 188.647 5.68661C188.404 5.83242 188.113 5.78382 187.967 5.5408C187.045 4.08272 185.59 4.08272 184.668 4.47154C183.552 4.95757 182.582 6.22124 182.97 7.97094C183.455 10.0609 184.328 10.7899 185.056 11.3245L185.299 11.4703C185.881 11.8591 186.512 12.248 186.56 13.22C186.609 13.4144 186.366 13.6574 186.075 13.6574C186.123 13.6574 186.075 13.6574 186.075 13.6574Z" fill="#373780"/>
<path d="M201.359 35.2855C196.167 35.2855 187.191 34.1677 184.668 24.9332C183.6 20.3159 183.94 17.6428 184.231 15.5042C184.425 14.1434 184.571 13.0255 184.28 11.7618C184.231 11.5188 184.377 11.2272 184.668 11.1786C184.911 11.13 185.202 11.2758 185.25 11.5674C185.541 13.0255 185.396 14.2406 185.202 15.6501C184.911 17.74 184.571 20.3159 185.59 24.6901C188.404 34.9453 200 34.4107 203.833 34.2163C205.726 34.1191 207.084 33.633 207.812 32.7582C208.734 31.6403 208.491 30.1336 208.394 29.2588L208.346 29.0644C208.346 28.9672 208.346 28.87 208.394 28.7728C209.122 27.2175 209.219 24.9818 208.588 24.0097C208.346 23.6695 208.055 23.4751 207.715 23.4751C207.084 23.4751 206.356 24.0097 205.483 24.6415C203.979 25.7594 202.087 27.1689 199.175 26.7801C196.895 26.3426 195.197 25.1762 194.129 23.3779C191.946 19.6841 192.771 14.0948 193.644 11.373C193.693 11.2272 193.79 11.13 193.887 11.0814C196.216 10.0607 196.895 7.72782 196.555 6.07533C196.313 4.90886 195.536 3.6938 194.081 3.64519C192.092 3.59659 191.073 4.37423 190.199 5.00607C189.568 5.4921 188.986 5.92952 188.258 5.68651C188.064 5.6379 187.919 5.44349 187.919 5.20048C187.919 4.90886 188.113 4.71445 188.404 4.71445C188.452 4.71445 188.501 4.71445 188.55 4.76306C188.792 4.86026 189.083 4.66585 189.617 4.22843C190.49 3.59659 191.752 2.62454 194.081 2.67314C195.779 2.72174 197.089 3.98541 197.477 5.88092C197.865 7.87363 197.089 10.5954 194.469 11.9076C193.741 14.3864 192.965 19.6355 194.906 22.9405C195.828 24.4957 197.332 25.5164 199.272 25.8566C201.796 26.1968 203.397 24.9818 204.852 23.8639C205.823 23.1349 206.696 22.503 207.666 22.503C208.394 22.503 208.977 22.8432 209.365 23.4751C210.238 24.8846 210.044 27.4119 209.316 29.0644V29.113C209.462 30.085 209.704 31.9319 208.54 33.39C207.618 34.4593 206.065 35.0911 203.882 35.1883C203.251 35.2369 202.378 35.2855 201.359 35.2855Z" fill="#373780"/>
<path d="M208.249 41.6039C208.152 41.6039 208.006 41.5553 207.909 41.4581C207.715 41.3123 207.715 41.0207 207.861 40.8263L207.909 40.7777C212.955 35.3342 210.044 16.5736 209.074 13.949C205.726 10.4496 206.502 7.63067 206.987 6.61002C207.715 5.00613 209.365 3.98547 210.966 4.08268C212.567 4.17988 212.858 5.20054 213.052 5.97818C213.101 6.12399 213.101 6.2212 213.149 6.367C213.295 6.90163 213.586 7.72788 216.06 7.63067C216.303 7.63067 216.546 7.82508 216.546 8.1167C216.546 8.40832 216.352 8.60273 216.06 8.60273C213.198 8.69993 212.518 7.67928 212.179 6.65862C212.13 6.51281 212.082 6.367 212.082 6.2212C211.888 5.49216 211.791 5.10333 210.869 5.05473C209.656 4.95753 208.394 5.78377 207.812 7.04744C206.939 8.89434 207.666 11.2273 209.801 13.4144C209.85 13.463 209.898 13.5116 209.898 13.5602C210.917 16.0389 214.023 35.5772 208.588 41.4581L208.54 41.5067C208.491 41.5553 208.394 41.6039 208.249 41.6039Z" fill="#373780"/>
<path d="M188.258 45.3949C188.064 45.3949 187.87 45.2977 187.822 45.1033C187.142 43.305 186.657 39.6112 189.617 38.3961C191.8 37.4726 193.256 38.8821 194.469 40C195.051 40.5832 195.633 41.0692 196.119 41.2151C197.38 41.5553 204.173 41.5553 208.152 40.6318C209.462 40.3402 210.044 40 210.335 39.8056C210.529 39.6112 210.869 39.6598 211.014 39.8542C211.208 40.0486 211.16 40.3888 210.966 40.5346C210.481 40.9234 209.607 41.3123 208.394 41.5553C204.367 42.4787 197.332 42.5273 195.876 42.1385C195.1 41.9441 194.469 41.3123 193.79 40.6804C192.674 39.6112 191.606 38.5905 190.005 39.2709C187.191 40.4374 188.695 44.5686 188.744 44.763C188.841 45.0061 188.695 45.2977 188.452 45.3949C188.404 45.3949 188.307 45.3949 188.258 45.3949Z" fill="#373780"/>
<path d="M189.374 51.2759C187.628 51.2759 186.803 50.4496 186.366 49.7692C185.541 48.4083 185.784 46.4642 186.609 45.7838C186.803 45.638 186.997 45.4922 187.191 45.2977C187.482 45.0547 187.773 44.8603 188.016 44.6173C188.841 43.8883 189.132 43.3536 189.035 42.819C188.986 42.576 189.132 42.2844 189.423 42.2358C189.665 42.1872 189.957 42.333 190.005 42.6246C190.248 43.7911 189.423 44.6659 188.695 45.3464C188.404 45.5894 188.113 45.8324 187.822 46.0754C187.628 46.2212 187.434 46.367 187.288 46.5128C186.9 46.853 186.609 48.2139 187.239 49.2346C188.064 50.5468 190.005 50.5954 192.771 49.429C193.935 49.0401 195.585 49.2832 197.72 49.5748C201.504 50.1094 206.648 50.8871 212.324 48.6513C218.826 45.7838 219.214 36.8895 219.408 31.5918C219.408 31.0572 219.457 30.5711 219.457 30.0851C219.554 28.1896 219.36 25.3707 219.166 22.6975C218.778 17.3026 218.584 13.9004 219.554 12.8312C222.223 10.401 221.834 8.0195 220.718 6.70722C219.214 4.95753 216.012 4.37429 213.004 6.80443C212.81 6.95024 212.47 6.95024 212.324 6.70722C212.179 6.46421 212.179 6.17259 212.421 6.02679C215.915 3.20783 219.7 3.98547 221.495 6.07539C222.999 7.87369 223.193 10.8384 220.282 13.5116C219.554 14.2892 219.894 18.9065 220.136 22.6003C220.33 25.322 220.524 28.0924 220.427 30.0851C220.379 30.5225 220.379 31.0572 220.379 31.5918C220.136 37.1325 219.748 46.4156 212.713 49.5262C206.793 51.8591 201.504 51.0815 197.623 50.5468C195.633 50.2552 194.081 50.0122 193.159 50.3038C191.558 51.0329 190.345 51.2759 189.374 51.2759Z" fill="#373780"/>
<path d="M8.0544 114.119C6.40472 114.119 4.85207 113.196 4.07575 111.738C3.20238 110.134 3.44498 108.238 4.70651 106.488C5.53135 104.35 5.04615 90.9356 4.26983 79.028C4.22131 78.4447 3.93019 77.8615 3.49351 77.4241C1.60122 75.723 1.60122 73.4387 2.23198 71.8348C2.95978 69.9879 4.60947 68.8214 6.3562 68.9186C8.24848 69.0158 8.83073 69.8421 9.17037 70.7655L9.26741 70.9599C9.51001 71.5918 9.65557 72.0292 10.5775 72.0778C10.8686 72.0778 11.0627 72.3208 11.0141 72.6124C11.0141 72.904 10.7715 73.0984 10.4804 73.0498C8.97629 72.9526 8.63664 72.0292 8.34552 71.3001L8.24848 71.1057C8.0544 70.5711 7.8118 69.9393 6.30768 69.8907C4.99763 69.8421 3.73611 70.7655 3.15386 72.2236C2.62014 73.4873 2.62014 75.3342 4.17279 76.695C4.85207 77.2783 5.24023 78.1045 5.28875 78.9308C5.77395 86.4642 6.79288 104.204 5.62839 106.877C5.62839 106.926 5.57987 106.926 5.57987 106.974C4.12427 108.919 4.60947 110.474 4.99763 111.203C5.62839 112.418 6.98696 113.147 8.297 113.098C9.26741 113.05 10.1408 112.612 10.8201 111.786C11.0141 111.592 11.3053 111.543 11.4993 111.738C11.6934 111.932 11.7419 112.224 11.5479 112.418C10.6745 113.439 9.55853 114.022 8.34552 114.07C8.19996 114.119 8.10292 114.119 8.0544 114.119Z" fill="#373780"/>
<path d="M13.7798 117.91C13.2946 117.91 12.8579 117.813 12.4212 117.667C10.9656 117.181 10.3834 116.209 9.89817 115.383C9.41297 114.556 9.12185 114.168 8.297 114.216L8.19996 113.73L8.24848 114.216C8.00588 114.265 7.76328 114.07 7.71476 113.779C7.66624 113.536 7.86032 113.293 8.10292 113.244H8.15144C9.65557 113.098 10.1893 114.022 10.6745 114.848C11.1112 115.577 11.5479 116.306 12.6638 116.695C13.5372 116.987 14.5561 116.889 15.3809 116.452C16.2058 116.015 16.5454 115.48 16.788 114.945L16.9821 114.702C17.4188 113.876 17.8555 112.953 19.4081 112.515C19.6507 112.467 19.9418 112.612 19.9904 112.855C20.0389 113.098 19.8933 113.39 19.6507 113.439C18.5348 113.73 18.2436 114.313 17.8555 115.091C17.807 115.188 17.7584 115.286 17.7099 115.383C17.3703 116.063 16.8851 116.792 15.8662 117.327C15.2354 117.716 14.5076 117.91 13.7798 117.91Z" fill="#373780"/>
<path d="M17.2732 115.723C17.1276 115.723 16.9336 115.626 16.885 115.48C16.7395 115.237 16.788 114.945 17.0306 114.8C18.0495 114.168 19.4566 114.119 21.2519 114.119C25.4731 114.022 31.1985 113.876 36.7783 106.245C40.6599 100.462 37.0209 93.8518 34.2553 90.8384C33.8671 90.4496 33.3334 90.2552 32.7997 90.3038C32.2659 90.3524 31.8293 90.644 31.5867 91.0814C31.3441 91.4702 31.3441 91.9077 31.4896 92.3937C31.5867 92.6853 31.7322 93.1227 31.4896 93.4629C31.1985 93.8518 30.7133 93.8032 30.2766 93.7546C29.8399 93.706 29.3062 93.706 29.0151 93.949C28.7725 94.192 28.7725 94.2892 29.7914 95.4556C30.2766 95.9417 30.8103 96.5735 31.4411 97.3998C32.363 98.712 32.0233 101.239 30.6648 103.378C29.5973 105.03 26.395 108.676 19.4566 107.218C18.7773 107.023 18.2436 107.023 17.904 107.218C17.3217 107.509 17.3217 108.287 17.3217 108.287C17.3217 108.578 17.1276 108.773 16.8365 108.773C16.5454 108.773 16.3513 108.578 16.3513 108.287C16.3513 108.238 16.3513 106.926 17.4673 106.343C18.0495 106.051 18.8258 106.051 19.6992 106.294C26.0068 107.606 28.918 104.35 29.8884 102.843C31.15 100.899 31.2955 98.8092 30.7133 97.983C30.1796 97.2053 29.5973 96.6221 29.1606 96.0875C28.2388 95.0668 27.4139 94.192 28.3843 93.2199C28.9666 92.6367 29.8399 92.6853 30.3736 92.7339C30.4707 92.7339 30.5677 92.7339 30.6648 92.7339V92.6853C30.3736 91.9563 30.4222 91.1786 30.8103 90.5468C31.1985 89.8663 31.9263 89.3803 32.7511 89.3317C33.6245 89.2345 34.4493 89.5747 35.0316 90.2066C37.9913 93.4143 41.8244 100.559 37.6032 106.829C31.7322 114.848 25.4731 114.994 21.3004 115.091C19.6507 115.14 18.3406 115.14 17.6128 115.626C17.4673 115.674 17.3702 115.723 17.2732 115.723Z" fill="#373780"/>
<path d="M17.6614 107.218C17.5644 107.218 17.5159 107.218 17.4188 107.169C17.1762 107.023 17.1277 106.732 17.2247 106.489C17.3703 106.246 17.2733 106.003 17.0307 105.711C16.4969 105.128 15.2839 104.739 14.5076 105.128C14.3621 105.225 14.168 105.176 14.0224 105.079C13.8769 104.982 13.7798 104.787 13.8283 104.593C13.9739 103.524 13.9254 103.135 13.7798 102.357C13.6343 101.482 13.3917 100.122 13.3431 96.9624C13.2946 94.9697 13.149 92.4424 13.052 90.0122C12.8094 85.1034 12.5183 80.0487 12.955 77.9588C13.2946 76.5007 14.0224 75.9175 14.6532 75.4801C15.381 74.9454 15.9632 74.508 15.7206 72.2723C15.5751 70.7656 14.7987 69.7449 13.5857 69.4047C12.0816 68.9673 10.1408 69.7449 8.97631 71.203C8.83075 71.3974 8.49111 71.446 8.29703 71.3002C8.10295 71.1544 8.05443 70.8142 8.19999 70.6198C9.60708 68.8215 11.936 67.9466 13.8283 68.4813C15.4295 68.9187 16.4484 70.2796 16.6425 72.1751C16.9336 74.7996 16.2058 75.5287 15.1869 76.2577C14.6047 76.6951 14.1195 77.0353 13.8769 78.1532C13.4402 80.0973 13.7313 85.1034 13.9739 89.915C14.1195 92.3452 14.2165 94.8725 14.265 96.9138C14.3135 99.9758 14.5561 101.288 14.7017 102.163C14.7987 102.795 14.8958 103.232 14.8473 103.961C15.9147 103.815 17.0792 104.301 17.7099 104.982C18.2437 105.565 18.3892 106.294 18.0496 106.877C18.0011 107.169 17.807 107.218 17.6614 107.218Z" fill="#373780"/>
<path d="M17.2733 92.0535C17.2248 92.0535 17.2248 92.0535 17.1762 92.0535C16.9336 92.0049 16.7396 91.7619 16.7881 91.4702C16.8366 91.2272 16.7881 91.1786 16.3029 90.887C16.1088 90.7412 15.8662 90.644 15.6721 90.4496C14.9928 89.8664 14.6532 89.0401 14.6532 87.8736C14.6532 86.2211 15.6236 85.1033 17.2248 84.8603C18.6804 84.6659 20.5241 85.2977 20.9123 86.6586C21.0093 86.9016 20.8638 87.1932 20.5727 87.2418C20.3301 87.339 20.0389 87.1932 19.9904 86.9016C19.7478 86.1725 18.5348 85.6379 17.3703 85.7837C16.7396 85.8809 15.6236 86.2697 15.6236 87.825C15.6236 88.9429 15.9632 89.4289 16.3029 89.6719C16.4484 89.8177 16.6425 89.9149 16.8366 90.0122C17.2733 90.3038 17.904 90.6926 17.71 91.616C17.71 91.8591 17.5159 92.0535 17.2733 92.0535Z" fill="#373780"/>
<path d="M22.853 95.0182C22.8045 95.0182 22.7075 95.0182 22.6589 94.9696C22.4163 94.8724 22.3193 94.5808 22.4163 94.3378C22.756 93.6088 22.9501 92.8311 22.9986 92.1993C22.9986 91.9077 23.2412 91.7133 23.4838 91.7133C23.7749 91.7133 23.969 91.9563 23.969 92.1993C23.9205 92.9283 23.6779 93.8518 23.2897 94.678C23.1927 94.921 23.0471 95.0182 22.853 95.0182Z" fill="#373780"/>
<path d="M19.1655 98.0803C18.6803 98.0803 18.1951 97.9831 17.6614 97.7401C14.9928 96.6222 15.2354 93.4144 15.478 91.0329C15.5265 90.6927 15.5265 90.3525 15.575 90.0122C15.575 89.7206 15.8176 89.5262 16.1087 89.5748C16.3998 89.5748 16.5939 89.8178 16.5454 90.1095C16.5454 90.4497 16.4969 90.7899 16.4484 91.1787C16.2543 93.463 16.0117 96.039 18.0495 96.9138C20.5726 97.9831 22.0282 95.2613 22.4163 94.4351C22.5134 94.1921 22.8045 94.0949 23.0471 94.1921C23.2897 94.2893 23.3867 94.5809 23.2897 94.8239C22.4649 96.4764 21.0578 98.0803 19.1655 98.0803Z" fill="#373780"/>
<path d="M23.1928 94.8725L22.8046 94.5323H22.3194C22.3194 94.4351 22.3679 94.2893 22.4649 94.1921C23.4354 93.1228 24.4058 92.734 25.4732 92.2966C27.3655 91.5189 29.743 90.5469 33.8672 85.395C37.4577 80.9235 36.8754 76.6465 36.1962 74.508C35.2743 71.4946 33.0423 69.0645 30.5678 68.2868C25.2306 66.6829 18.5348 68.1896 17.1762 68.7729C17.1762 69.3561 17.5644 69.6963 18.1467 70.2309C18.6319 70.6684 19.1171 71.1544 19.3597 71.8348C19.6508 72.6611 19.1171 73.3901 18.6319 74.022C18.0011 74.8968 17.6129 75.48 18.0981 76.3063C18.923 76.7923 19.9419 76.4035 21.5431 75.6744C22.4649 75.237 23.5324 74.7996 24.7454 74.508C26.5892 74.0706 28.3844 74.751 29.3063 76.2091C30.4708 78.056 30.0341 80.5833 28.0933 83.0135C25.0365 86.9017 20.5727 87.1933 20.3786 87.1933C20.0875 87.1933 19.8934 86.9989 19.8449 86.7559C19.8449 86.4642 20.0389 86.2698 20.2815 86.2212C20.3301 86.2212 24.5028 85.9296 27.2684 82.3816C28.9181 80.2917 29.3548 78.2018 28.4329 76.6951C27.7051 75.5772 26.3466 75.0912 24.891 75.4314C23.775 75.6744 22.7561 76.1605 21.8342 76.5493C20.1845 77.2783 18.7289 77.9588 17.3703 77.0839C17.3218 77.0353 17.2733 76.9867 17.2248 76.9381C16.2058 75.4314 17.0792 74.265 17.71 73.4387C18.1467 72.8555 18.3893 72.4667 18.2922 72.1264C18.1467 71.6404 17.7585 71.3002 17.3218 70.9114C16.691 70.3281 15.9147 69.6477 16.0603 68.384C16.0603 68.2382 16.1573 68.141 16.2544 68.0438C17.2248 67.3148 24.7939 65.5165 30.6649 67.3148C33.479 68.1896 35.905 70.8142 36.924 74.1678C38.137 78.1046 37.2151 82.4302 34.4009 85.9296C30.0826 91.3245 27.511 92.3452 25.6188 93.1228C24.8424 93.6088 24.0661 93.9491 23.1928 94.8725Z" fill="#373780"/>
<path d="M70.9366 114.216C70.6455 114.216 70.3543 114.216 70.0632 114.216C65.7934 114.022 55.6527 112.272 53.2267 99.3925C50.0244 82.1871 58.3699 75.8688 65.0656 70.8141L65.4053 70.5711C67.2005 67.5091 69.6751 66.9259 71.3733 67.4605C73.023 67.9465 74.1389 69.4046 74.0419 70.9599C73.9448 72.5152 73.4111 73.147 72.9744 73.6817C72.8289 73.8275 72.7318 73.9733 72.6348 74.1191C72.4407 74.4593 72.2466 74.8967 72.3437 75.9174C72.3922 76.1604 72.1981 76.4034 71.907 76.452C71.6159 76.5006 71.4218 76.3062 71.3733 76.0146C71.2762 74.9453 71.4218 74.2163 71.8099 73.5844C71.9555 73.39 72.0525 73.2442 72.1981 73.0498C72.5863 72.5638 72.9744 72.1264 73.0715 70.8627C73.12 69.7934 72.2951 68.7242 71.0821 68.384C70.4029 68.1896 68.0254 67.8007 66.1816 71.1543C66.1331 71.2029 66.0846 71.2515 66.036 71.3001L65.5994 71.5917C58.758 76.7436 50.9948 82.5759 54.1001 99.1981C56.3805 111.349 65.9875 113.05 70.0147 113.196C78.7483 113.536 86.8027 108.287 90.0535 100.122C91.3151 97.0109 91.5577 93.9976 91.7517 89.7691C92.0914 83.791 89.9565 77.9101 86.2204 74.4107C83.6489 72.0292 80.5921 70.9113 77.3898 71.3001C76.9046 71.4945 76.5164 71.7862 76.3223 72.2236C76.0797 72.7582 76.0797 73.4386 76.3223 74.0705C76.4679 74.5079 76.7105 74.8967 77.0501 75.1397C77.2442 75.2855 77.2927 75.6258 77.1472 75.8202C77.0016 76.0146 76.662 76.0632 76.4679 75.9174C76.0312 75.5772 75.643 75.0425 75.449 74.4107C75.1093 73.5359 75.1578 72.5638 75.4975 71.8348C75.8371 71.1543 76.4194 70.6683 77.1957 70.4253C77.2442 70.4253 77.2442 70.4253 77.2927 70.4253C80.8347 69.9878 84.1341 71.1543 86.9482 73.7789C90.8784 77.4727 93.1103 83.6452 92.7707 89.9149C92.5281 94.2406 92.2855 97.3512 90.9754 100.608C87.7246 108.773 79.7187 114.216 70.9366 114.216Z" fill="#373780"/>
<path d="M72.4892 106.586C72.3921 106.586 72.3436 106.586 72.2465 106.586C66.6182 106.44 61.8147 102.26 60.7958 96.6221C58.8065 85.5893 66.9093 80.0486 67.2975 79.757C67.4916 79.6112 67.7827 79.6598 67.9283 79.8056C68.1223 80 68.1223 80.2916 67.9283 80.486C67.9283 80.486 67.8797 80.5346 67.8312 80.5346C67.7342 80.5832 59.8254 85.7837 61.7662 96.3791C62.8336 102.26 67.8797 105.468 72.2951 105.565C77.4382 105.711 81.3683 102.066 82.824 95.8931C84.231 89.8177 84.0855 85.4435 82.3873 82.8675C80.9317 80.6318 78.5542 80.243 77.1471 80H77.0015C75.9826 79.8056 74.7696 79.1251 74.8666 76.938C74.9152 75.9174 75.2063 74.9453 75.4004 74.2649L75.4489 74.0219C75.4974 73.8274 75.6915 73.6816 75.9341 73.6816C76.2252 73.6816 76.4193 73.8761 76.4193 74.1677C76.4193 74.2163 76.4193 74.2649 76.4193 74.3135L76.3708 74.5565C76.1767 75.1883 75.8856 76.1118 75.8856 76.9866C75.837 78.5905 76.5648 78.9307 77.2441 79.0279H77.3897C78.8453 79.2709 81.5624 79.757 83.2606 82.3329C85.1044 85.1519 85.2985 89.7691 83.8429 96.0875C81.5139 105.711 74.8666 106.586 72.4892 106.586Z" fill="#373780"/>
<path d="M69.9662 81.604C68.6562 81.604 67.8798 81.0693 67.2976 80.4861C67.2005 80.3889 67.1035 80.2917 67.055 80.2431C66.8124 80.0001 66.5698 79.7571 66.3757 79.7571C66.1331 79.7571 65.8905 79.5627 65.8905 79.271C65.8905 78.9794 66.0846 78.785 66.3757 78.785C66.9094 78.785 67.2976 79.1738 67.7343 79.5627C67.8313 79.6599 67.8798 79.7085 67.9769 79.8057C68.4621 80.2431 69.0443 80.6319 70.0147 80.6319C71.7129 80.6319 73.5567 78.785 73.6052 76.9381C73.6537 75.8689 73.12 74.9454 72.0041 74.2164C71.7615 74.0706 71.7129 73.7789 71.8585 73.5359C72.0041 73.2929 72.2952 73.2443 72.5378 73.3901C74.2845 74.5566 74.6241 75.9661 74.5756 76.9867C74.4786 79.3196 72.1981 81.604 69.9662 81.604Z" fill="#373780"/>
<path d="M105.823 80.243C105.725 80.243 105.628 80.1944 105.531 80.1458C104.998 79.757 104.561 79.3682 104.173 78.9308C101.892 76.5492 102.135 74.4107 102.523 73.3901C103.105 71.7376 104.61 70.5225 106.405 70.2795C108.394 69.9879 110.335 70.9113 111.645 72.8068C111.791 73.0498 111.742 73.3414 111.548 73.4873C111.354 73.6331 111.014 73.5845 110.869 73.3901C109.753 71.7862 108.2 71.0085 106.55 71.2515C105.095 71.4459 103.882 72.418 103.445 73.7303C102.96 75.1883 103.445 76.7922 104.901 78.2989C105.24 78.6877 105.677 79.028 106.162 79.4168C106.356 79.5626 106.405 79.9028 106.259 80.0972C106.114 80.1944 105.968 80.243 105.823 80.243Z" fill="#373780"/>
<path d="M105.434 114.848C104.124 114.848 102.863 114.313 102.038 113.244C101.359 112.418 99.515 109.405 104.076 105.468C104.561 102.454 105.434 81.7497 104.076 78.7363C103.979 78.4933 104.076 78.2017 104.318 78.1045C104.561 78.0073 104.852 78.1045 104.949 78.3475C106.502 81.8469 105.434 103.621 104.998 105.808C104.998 105.905 104.901 106.002 104.852 106.1C102.087 108.433 101.31 110.814 102.814 112.612C103.785 113.779 105.386 114.168 106.842 113.584C107.424 113.341 107.957 112.953 108.346 112.467L108.54 112.224C109.219 111.397 109.85 110.668 110.772 110.863C111.014 110.911 111.208 111.203 111.111 111.446C111.063 111.689 110.772 111.883 110.529 111.786C110.189 111.689 109.85 112.126 109.268 112.807L109.025 113.098C108.54 113.73 107.86 114.168 107.133 114.459C106.599 114.751 106.017 114.848 105.434 114.848Z" fill="#373780"/>
<path d="M112.324 115.237C111.597 115.237 110.869 115.091 110.092 114.945C109.122 114.751 108.103 114.556 107.084 114.605L107.036 114.119V113.633C108.2 113.584 109.316 113.779 110.286 113.973C112.615 114.459 114.168 114.751 115.381 111.252C115.866 109.696 115.09 108.238 114.362 107.266C113.828 106.537 113.537 105.711 113.586 104.885C113.683 98.5176 113.877 87.0474 114.071 82.0899C114.12 81.4095 114.362 80.7776 114.799 80.1944C116.4 78.2503 118.001 74.7023 116.497 73.39C115.236 72.2722 114.411 72.6124 112.955 73.0984C112.47 73.2442 111.985 73.4386 111.402 73.5844C110.432 73.8275 109.559 73.9247 108.588 73.8275C108.297 73.8275 108.103 73.5844 108.152 73.2928C108.152 73.0498 108.394 72.8068 108.685 72.8554C109.559 72.904 110.335 72.8554 111.208 72.6124C111.742 72.4666 112.227 72.3208 112.664 72.1264C114.12 71.5917 115.527 71.1057 117.176 72.6124C119.311 74.5079 117.322 78.6391 115.575 80.7776C115.236 81.1665 115.09 81.6039 115.041 82.0899C114.847 87.1932 114.605 99.7327 114.556 104.836C114.556 105.468 114.75 106.1 115.139 106.634C115.866 107.606 116.934 109.502 116.303 111.543C115.284 114.508 113.877 115.237 112.324 115.237Z" fill="#373780"/>
<path d="M128.676 109.502C128.433 109.502 128.19 109.307 128.19 109.064C128.19 109.016 128.19 108.967 128.19 108.919C127.948 107.12 126.347 105.419 119.651 99.7813C113.634 94.7267 114.75 91.5675 115.332 89.8664C115.43 89.5748 115.575 89.2346 115.527 89.1373C114.993 88.3111 114.265 85.0061 115.041 82.7704C115.43 81.7011 116.109 81.0207 117.031 80.6805C117.467 80.5347 117.953 80.5833 118.389 80.7777C120.039 81.6039 121.058 85.1033 121.883 87.8737C122.028 88.4083 122.174 88.8943 122.319 89.2832C123.241 92.0535 129.5 98.1288 131.102 98.4691C132.994 98.9065 133.673 100.073 133.722 100.122C133.867 100.365 133.77 100.656 133.528 100.802C133.285 100.948 132.994 100.851 132.848 100.608C132.848 100.559 132.315 99.7327 130.907 99.3925C128.87 98.9551 122.368 92.4909 121.398 89.5262C121.252 89.0887 121.106 88.6027 120.961 88.0681C120.282 85.7352 119.214 82.1872 117.953 81.5553C117.758 81.4581 117.564 81.4581 117.37 81.5067C116.74 81.7011 116.303 82.1872 116.012 82.9648C115.332 84.8603 115.963 87.7765 116.4 88.5055C116.691 88.9429 116.497 89.4776 116.303 90.0608C115.721 91.6647 114.799 94.2892 120.282 98.9065C126.929 104.447 128.87 106.391 129.161 108.676C129.161 108.724 129.161 108.821 129.209 108.87C129.161 109.259 128.967 109.453 128.676 109.502Z" fill="#373780"/>
<path d="M132.315 115.577C130.374 115.577 128.821 114.654 128.093 113.05C127.172 110.96 127.754 109.648 128.142 108.676L128.19 108.627C128.579 107.752 128.773 107.266 128.142 106.488C127.996 106.294 127.996 105.954 128.239 105.808C128.433 105.662 128.773 105.662 128.918 105.905C129.889 107.169 129.5 108.092 129.064 109.064L129.015 109.113C128.627 109.988 128.19 111.008 128.967 112.71C129.792 114.605 131.732 114.702 132.509 114.654C134.353 114.556 136.051 113.536 136.536 112.175C136.633 111.932 136.924 111.786 137.167 111.883C137.409 111.981 137.555 112.224 137.458 112.515C136.876 114.265 134.838 115.577 132.557 115.674C132.509 115.577 132.412 115.577 132.315 115.577Z" fill="#373780"/>
<path d="M140.466 114.314C140.223 114.314 139.981 114.265 139.738 114.168C139.301 113.925 138.865 113.633 138.477 113.341C137.943 112.953 137.506 112.612 136.924 112.467C136.293 112.272 135.662 112.272 134.886 112.515C134.644 112.612 134.352 112.467 134.255 112.224C134.158 111.981 134.304 111.689 134.546 111.592C135.517 111.252 136.39 111.252 137.215 111.543C137.894 111.786 138.477 112.175 139.01 112.564C139.399 112.855 139.738 113.098 140.126 113.293C140.466 113.487 141 113.244 141.436 112.758C142.455 111.64 142.892 109.405 141.485 107.072C139.253 103.427 139.496 101.628 140.029 97.3026C140.126 96.6222 140.223 95.8445 140.32 94.9697C140.66 91.9077 140.612 88.6513 140.563 85.9782C140.514 82.6732 140.514 80.9235 140.951 80.1945C141.194 79.757 141.582 79.3682 142.019 78.9794C143.135 77.9101 144.396 76.7437 143.717 74.3621C143.377 73.0985 142.746 72.3208 141.922 72.0292C140.272 71.446 138.088 72.9527 138.088 72.9527C137.894 73.0985 137.555 73.0499 137.409 72.8554C137.264 72.6124 137.312 72.3208 137.506 72.175C137.603 72.0778 140.078 70.3767 142.213 71.1544C143.377 71.5432 144.154 72.5638 144.639 74.1191C145.464 77.0839 143.765 78.6878 142.649 79.7084C142.261 80.0486 141.922 80.3889 141.727 80.6805C141.388 81.2151 141.436 83.548 141.485 85.9782C141.533 88.6513 141.582 91.9563 141.242 95.0669C141.145 95.9417 141.048 96.7194 140.951 97.4484C140.417 101.774 140.272 103.232 142.31 106.586C144.008 109.356 143.377 112.078 142.116 113.439C141.679 114.022 141.048 114.314 140.466 114.314Z" fill="#373780"/>
<path d="M130.956 99.4898C130.81 99.4898 130.665 99.4412 130.568 99.2954C130.422 99.101 130.422 98.7607 130.665 98.6149C132.121 97.4485 133.188 84.2285 132.169 80.3403C129.064 76.4035 129.889 73.9248 130.616 72.8069C131.781 71.0572 134.11 70.4254 135.662 70.8628C136.681 71.1544 137.312 71.689 137.894 72.1751L138.137 72.3695C138.622 72.8069 139.156 73.2929 139.932 73.7304C140.175 73.8762 140.223 74.1678 140.126 74.4108C139.981 74.6538 139.69 74.7024 139.447 74.6052C138.574 74.1192 137.991 73.5845 137.506 73.0985L137.312 72.9041C136.778 72.4667 136.293 72.0293 135.468 71.8349C134.255 71.4946 132.363 72.0293 131.49 73.3901C130.422 74.994 131.005 77.2784 133.042 79.8543C133.091 79.9029 133.091 79.9515 133.139 80.0001C134.158 83.5481 133.431 97.6915 131.344 99.3926C131.15 99.4412 131.053 99.4898 130.956 99.4898Z" fill="#373780"/>
<path d="M156.914 76.3063C156.72 76.3063 156.526 76.1605 156.429 75.966C156.235 75.2856 155.895 74.9454 155.604 74.6052C155.41 74.4108 155.216 74.2164 155.071 73.9733C154.682 73.3901 154.488 72.5639 154.488 71.3488C154.537 69.1617 156.866 67.3634 158.952 67.0718C160.796 66.8287 162.252 67.8008 162.834 69.5991C164.629 70.1823 174.818 69.9879 176.371 69.5991C178.554 67.655 181.466 67.2662 183.261 68.6757C185.007 70.0851 185.056 72.7583 183.309 75.8202C183.212 75.966 183.067 76.0633 182.873 76.0633C182.581 76.0633 182.387 75.8688 182.387 75.5772C182.387 75.48 182.387 75.3828 182.436 75.3342C183.94 72.7097 183.989 70.5225 182.63 69.4533C181.368 68.4812 178.894 68.5784 176.905 70.4253C176.856 70.4739 176.808 70.5226 176.711 70.5226C175.449 70.9114 163.756 71.3002 162.154 70.3767C162.057 70.3281 161.96 70.2309 161.912 70.0851C161.33 68.0438 159.874 67.898 159.049 68.0438C157.205 68.2868 155.459 69.8907 155.41 71.3488C155.41 72.6125 155.604 73.0985 155.798 73.3901C155.944 73.5845 156.089 73.7303 156.235 73.8761C156.575 74.2164 157.06 74.7024 157.302 75.6258C157.4 75.8688 157.254 76.1605 156.963 76.2091C157.011 76.3063 156.963 76.3063 156.914 76.3063Z" fill="#373780"/>
<path d="M157.06 81.604C156.381 81.604 155.75 81.4582 155.119 81.0693C154.197 80.5347 153.663 79.7571 153.469 78.785C152.984 76.3549 155.022 73.5359 155.071 73.3901C155.216 73.1957 155.556 73.1471 155.75 73.2929C155.944 73.4387 155.992 73.7303 155.847 73.9733C155.847 74.022 154.003 76.5979 154.391 78.5906C154.537 79.271 154.925 79.8057 155.604 80.2431C157.691 81.5068 160.505 79.4168 161.669 78.4934C163.998 76.5007 176.662 78.1532 178.069 78.3476C178.166 78.3476 178.263 78.3962 178.312 78.4448C180.155 80.0001 181.902 80.2917 182.921 79.3196C183.552 78.6878 183.697 77.7158 183.261 77.0839C182.921 76.5979 182.679 76.2577 182.436 75.8689C181.999 75.1398 181.466 74.022 181.902 73.0985C181.999 72.8555 182.29 72.7583 182.533 72.8555C182.776 72.9527 182.873 73.2443 182.776 73.4873C182.582 73.8761 182.776 74.508 183.261 75.3342C183.455 75.6744 183.697 76.0147 184.037 76.4521C184.765 77.4727 184.571 79.028 183.6 79.9515C183.067 80.4375 181.126 81.847 177.827 79.1738C172.586 78.4934 163.804 77.8616 162.3 79.1252C161.281 80.0487 159.146 81.604 157.06 81.604Z" fill="#373780"/>
<path d="M156.672 111.543C156.235 111.543 155.847 111.495 155.459 111.397C155.216 111.349 155.022 111.057 155.071 110.814C155.119 110.571 155.41 110.377 155.653 110.425C156.623 110.62 157.788 110.522 158.807 110.085C159.049 109.988 159.34 110.085 159.437 110.377C159.534 110.62 159.437 110.911 159.146 111.008C158.37 111.349 157.497 111.543 156.672 111.543Z" fill="#373780"/>
<path d="M155.556 111.397C155.507 111.397 155.507 111.397 155.459 111.397C154.052 111.106 153.033 110.231 152.644 109.016C152.208 107.655 152.402 105.273 155.75 101.628C157.06 99.344 155.944 91.4703 155.507 88.5056C155.071 85.4922 154.876 83.8397 155.653 83.1593C155.944 82.8677 156.381 82.7704 156.914 82.9163C158.03 83.2079 158.952 82.6732 160.796 81.7012C161.233 81.4582 161.718 81.2152 162.251 80.9235C163.222 80.4375 164.241 80.4861 164.92 81.0694C165.696 81.7012 165.891 82.7704 165.551 84.0341C165.114 85.4922 165.114 87.1933 165.114 88.0681C165.114 88.6028 165.163 88.943 165.163 88.943C165.211 89.186 165.017 89.429 164.726 89.4776C164.483 89.5262 164.241 89.3318 164.192 89.0402C164.192 89.0402 164.144 88.6514 164.144 88.0681C164.095 87.1447 164.144 85.3464 164.58 83.7425C164.823 82.8677 164.726 82.1872 164.289 81.7984C163.901 81.4582 163.27 81.4582 162.64 81.7498C162.106 82.0414 161.621 82.2844 161.184 82.4788C159.243 83.4995 158.079 84.1313 156.623 83.7911C156.478 83.7425 156.332 83.7425 156.235 83.7911C155.798 84.1799 156.138 86.367 156.381 88.2625C157.157 93.8519 157.788 99.83 156.478 102.066C156.478 102.114 156.429 102.114 156.429 102.163C154.052 104.739 152.984 107.072 153.469 108.627C153.857 109.794 154.925 110.182 155.556 110.328C155.798 110.377 155.992 110.668 155.944 110.911C155.992 111.252 155.798 111.397 155.556 111.397Z" fill="#373780"/>
<path d="M160.02 115.966C159.68 115.966 159.34 115.917 159.049 115.82C158.176 115.529 157.497 114.897 157.254 113.973C156.866 112.71 155.895 111.592 155.41 111.349C155.362 111.349 155.313 111.3 155.265 111.252C155.071 111.057 155.071 110.766 155.265 110.571C155.41 110.425 155.653 110.377 155.847 110.522C156.623 110.911 157.739 112.224 158.176 113.682C158.37 114.265 158.758 114.702 159.34 114.897C160.456 115.237 161.96 114.702 163.465 113.487C163.756 113.244 164.047 113.001 164.338 112.71C164.532 112.515 164.823 112.515 165.017 112.71C165.211 112.904 165.211 113.196 165.017 113.39C164.726 113.73 164.387 114.022 164.095 114.265C162.64 115.334 161.233 115.966 160.02 115.966Z" fill="#373780"/>
<path d="M181.951 114.8C181.029 114.8 179.961 114.459 178.845 113.682C177.584 113.536 167.298 112.564 163.901 114.265C163.659 114.411 163.367 114.314 163.27 114.071C163.125 113.828 163.222 113.536 163.464 113.439C167.298 111.446 178.603 112.71 179.088 112.758C179.185 112.758 179.234 112.807 179.331 112.855C181.32 114.314 183.018 114.022 183.892 113.05C184.668 112.126 184.862 110.474 183.358 108.967C182.921 108.53 182.339 108.092 181.708 107.752C181.466 107.606 181.368 107.315 181.514 107.12C181.66 106.877 181.951 106.78 182.145 106.926C182.921 107.315 183.552 107.801 184.037 108.287C185.881 110.134 185.735 112.418 184.619 113.682C184.037 114.314 183.067 114.8 181.951 114.8Z" fill="#373780"/>
<path d="M183.697 109.016C183.649 109.016 183.6 109.016 183.552 109.016C183.309 108.919 183.164 108.676 183.212 108.433C184.183 104.933 183.6 103.427 182.921 102.746C181.999 101.823 180.495 102.066 179.913 102.26C178.603 102.649 177.487 103.524 177.293 104.399C177.293 104.496 177.196 104.593 177.147 104.642C176.128 105.516 169.093 105.565 165.745 104.69C164.823 104.447 164.192 104.204 163.756 103.864C163.562 103.718 163.513 103.378 163.659 103.184C163.804 102.989 164.144 102.941 164.338 103.086C164.532 103.281 165.017 103.524 165.939 103.767C169.433 104.642 175.352 104.35 176.371 103.961C176.759 102.843 178.069 101.774 179.622 101.288C181.223 100.851 182.63 101.094 183.552 102.017C184.425 102.892 185.202 104.739 184.086 108.676C184.086 108.919 183.892 109.016 183.697 109.016Z" fill="#373780"/>
<path d="M165.891 104.739C165.745 104.739 165.648 104.69 165.551 104.593C164.629 103.572 164.435 100.996 164.386 99.9757C164.386 99.6355 164.241 96.5735 164.92 95.8445C165.26 95.5043 165.842 95.3099 166.667 95.3099C167.589 95.3099 168.996 95.6015 169.53 96.0389C170.694 96.4277 171.616 96.1847 172.053 95.4557C172.489 94.7266 172.295 93.6574 171.567 93.0255C171.276 92.7339 170.84 92.5395 170.403 92.4423C170.16 92.3937 169.966 92.1021 170.015 91.8591C170.063 91.6161 170.354 91.4217 170.597 91.4703C171.228 91.6161 171.761 91.9077 172.198 92.2965C173.266 93.22 173.508 94.7752 172.829 95.9417C172.15 97.1082 170.743 97.497 169.093 96.9138C168.996 96.8652 168.947 96.8166 168.899 96.768C168.462 96.4277 165.988 96.0389 165.599 96.4763C165.163 97.011 165.017 102.6 166.23 103.961C166.424 104.156 166.376 104.447 166.182 104.642C166.085 104.69 165.988 104.739 165.891 104.739Z" fill="#373780"/>
<path d="M171.907 93.0741C171.664 93.0741 171.47 92.8797 171.422 92.6367C171.276 91.8591 171.567 91.2272 171.859 90.5468C172.247 89.6233 172.635 88.8457 171.81 87.7764C170.646 86.2212 168.85 86.9016 166.764 87.9222C165.696 88.4569 164.92 88.8457 164.338 88.4569C164.095 88.3111 164.047 88.0195 164.192 87.7764C164.338 87.582 164.629 87.4848 164.823 87.6306C165.066 87.6792 165.745 87.2904 166.279 87.0474C168.074 86.1726 170.743 84.8603 172.489 87.1932C173.605 88.6999 173.072 89.915 172.635 90.9356C172.392 91.5188 172.15 92.0049 172.247 92.4423C172.247 92.4909 172.247 92.4909 172.247 92.5395C172.392 92.8797 172.15 93.0741 171.907 93.0741Z" fill="#373780"/>
<path d="M200.777 116.792C200.582 116.792 200.34 116.792 200.097 116.744C198.884 116.549 197.865 115.674 197.332 114.411C196.701 112.904 196.943 111.154 197.914 109.793C198.399 109.113 199.078 108.53 199.903 108.092C200.146 107.947 200.437 108.044 200.582 108.287C200.728 108.53 200.631 108.821 200.388 108.967C199.661 109.356 199.127 109.842 198.69 110.377C197.865 111.446 197.72 112.807 198.205 114.022C198.593 114.994 199.369 115.626 200.194 115.772C201.504 115.966 202.378 115.431 203.203 114.848C204.076 114.313 204.949 113.73 206.065 114.216C212.567 116.306 219.069 113.876 222.611 110.522C225.619 107.704 226.832 104.204 226.007 100.899C224.454 94.5322 220.185 92.4909 215.721 90.2552C213.343 89.0887 210.82 87.8736 208.685 85.9295C205.774 83.3536 205.871 81.1178 206.453 79.6598C207.666 76.7922 211.597 75.2855 214.556 75.5285C214.75 75.5285 214.896 75.6744 214.993 75.8202C215.527 77.181 217.322 77.7157 218.778 77.6185C219.894 77.5213 221.301 77.0352 221.543 75.8688C221.931 74.1677 221.349 73.633 220.67 72.9526C220.185 72.4666 219.602 71.9319 219.408 70.9113C219.36 70.6683 219.554 70.3767 219.796 70.3281C220.039 70.2795 220.33 70.4739 220.379 70.7169C220.476 71.3973 220.912 71.7861 221.349 72.2236C222.125 72.9526 223.047 73.8761 222.514 76.0632C222.174 77.4727 220.767 78.3961 218.826 78.5419C217.128 78.6391 214.993 78.0559 214.217 76.4034C211.597 76.3062 208.297 77.6671 207.327 80C206.648 81.6039 207.327 83.4022 209.316 85.1519C211.354 86.9988 213.78 88.1652 216.109 89.2831C220.573 91.4702 225.231 93.7545 226.929 100.559C227.851 104.253 226.492 108.092 223.241 111.154C218.632 115.431 211.742 116.987 205.677 115.043C204.998 114.751 204.513 115.043 203.639 115.577C203.009 116.209 202.038 116.792 200.777 116.792Z" fill="#373780"/>
<path d="M198.302 110.62C198.06 110.62 197.817 110.425 197.817 110.182C197.72 108.578 197.623 103.232 201.747 102.795C204.125 102.552 206.696 104.35 207.181 106.537C208.637 107.509 211.839 107.169 214.411 105.759C216.158 104.787 217.128 103.524 216.982 102.406C216.74 100.51 215.527 99.9757 212.81 98.8579C210.529 97.9344 207.375 96.6707 203.688 93.706C199.758 90.5954 197.429 86.853 196.992 82.9648C196.604 79.514 197.671 76.1118 200.146 73.0984C204.707 67.4605 213.44 68.0438 214.993 68.1896C217.468 66.0997 220.427 66.2941 221.931 67.7521C223.047 68.8214 223.533 70.7655 221.543 73.0984L221.155 72.8068L220.815 72.4666C222.077 70.9599 222.271 69.4532 221.252 68.4326C220.088 67.2661 217.516 67.2175 215.478 69.0158C215.381 69.113 215.236 69.1616 215.09 69.113C214.993 69.113 205.435 67.9952 200.922 73.6331C198.642 76.452 197.623 79.6112 198.011 82.7704C198.399 86.4156 200.631 89.915 204.367 92.8797C207.958 95.7473 211.014 96.9624 213.246 97.8858C215.963 98.9551 217.71 99.6841 218.001 102.211C218.195 103.767 217.079 105.371 214.945 106.537C212.276 107.995 208.443 108.627 206.502 107.12C206.405 107.023 206.356 106.926 206.308 106.829C206.065 105.03 203.882 103.475 201.893 103.718C199.661 103.961 198.545 106.294 198.836 110.085C198.836 110.328 198.642 110.571 198.302 110.62C198.351 110.62 198.351 110.62 198.302 110.62Z" fill="#373780"/>
</g>
<defs>
<clipPath id="clip0_311_2293">
<rect width="227.317" height="120" fill="white"/>
</clipPath>
</defs>
</svg>
